<?xml version="1.0" standalone="no"?>
<!DOCTYPE svg PUBLIC "-//W3C//DTD SVG 1.1//EN" "http://www.w3.org/Graphics/SVG/1.1/DTD/svg11.dtd" >
<svg xmlns="http://www.w3.org/2000/svg">
<metadata>
This is a custom SVG webfont generated by Font Squirrel.
Copyright   : c Copyright 20002003 The Font Bureau Inc Designed by Cyrus Highsmith Tobias FrereJones and Font Bureau All rights reserved
</metadata>
<defs>
<font id="BentonSansRegular" horiz-adv-x="1533" >
<font-face units-per-em="2048" ascent="1638" descent="-410" />
<missing-glyph horiz-adv-x="479" />
<glyph unicode=" "  horiz-adv-x="479" />
<glyph unicode="&#x09;" horiz-adv-x="479" />
<glyph unicode="&#xa0;" horiz-adv-x="479" />
<glyph unicode="!" horiz-adv-x="657" d="M221 1516h219l-51 -1090h-115zM225 0v211h211v-211h-211z" />
<glyph unicode="&#x22;" horiz-adv-x="849" d="M160 1395v121h168v-121l-35 -402h-98zM522 1395v121h166v-121l-35 -402h-96z" />
<glyph unicode="#" horiz-adv-x="1470" d="M82 432v141h266l76 369h-254v141h285l90 433h162l-91 -433h363l90 433h162l-90 -433h245v-141h-274l-78 -369h264v-141h-292l-93 -432h-161l90 432h-361l-92 -432h-162l90 432h-235zM510 573h362l76 369h-360z" />
<glyph unicode="$" horiz-adv-x="1339" d="M115 285l131 86q72 -106 155.5 -166t208.5 -72v586q-104 31 -172.5 58.5t-139.5 74.5t-105.5 117.5t-34.5 165.5q0 164 119.5 273.5t326.5 121.5v147h127v-151q274 -27 420 -258l-129 -97q-59 94 -125 144.5t-170 62.5v-528q113 -31 185.5 -60.5t149.5 -80t114.5 -126 t37.5 -180.5q0 -174 -128 -287.5t-355 -127.5v-178h-127v180q-182 14 -302.5 97t-186.5 198zM330 1149q0 -104 70.5 -162.5t209.5 -101.5v497q-139 -8 -209.5 -71.5t-70.5 -161.5zM727 133q315 23 315 256q0 121 -79.5 184.5t-235.5 112.5v-553z" />
<glyph unicode="%" horiz-adv-x="2037" d="M119 1071q0 213 96 340t260 127q162 0 256 -125t94 -336q0 -209 -94 -337t-258 -128q-168 0 -261 125t-93 334zM276 1077q0 -154 51.5 -241.5t147.5 -87.5q92 0 143.5 90t51.5 235q0 154 -51.5 242t-145.5 88q-96 0 -146.5 -89.5t-50.5 -236.5zM487 0l906 1516h159 l-905 -1516h-160zM1212 438q0 213 96.5 340t260.5 127q162 0 256 -125t94 -336q0 -207 -95 -335.5t-259 -128.5q-166 0 -259.5 125.5t-93.5 332.5zM1368 444q0 -154 51 -242.5t148 -88.5q94 0 145 91t51 238q0 154 -51 241t-147.5 87t-146.5 -89.5t-50 -236.5z" />
<glyph unicode="&#x26;" horiz-adv-x="1484" d="M72 375q0 156 95 265.5t259 195.5q-102 182 -102 346q0 152 96 257t272 105q160 0 246 -85t86 -214q0 -147 -99.5 -249.5t-279.5 -192.5q33 -51 131 -176q135 -174 244 -283q117 160 149 418h164q-43 -309 -192 -510q152 -117 301 -117v-155q-233 8 -414 151 q-186 -160 -446 -160q-246 0 -378 110t-132 294zM252 393q0 -133 87 -202.5t255 -69.5q186 0 317 106q-113 106 -274 310q-92 117 -139 186q-246 -144 -246 -330zM494 1192q0 -135 86 -283q137 72 209.5 145.5t72.5 178.5q0 72 -44 120t-126 48q-94 0 -146 -56.5t-52 -152.5 z" />
<glyph unicode="'" horiz-adv-x="489" d="M160 1395v121h168v-121l-35 -402h-98z" />
<glyph unicode="(" horiz-adv-x="817" d="M121 563q0 289 129 528.5t385 454.5l80 -88q-403 -383 -404 -895q0 -518 408 -899l-84 -84q-514 432 -514 983z" />
<glyph unicode=")" horiz-adv-x="817" d="M98 -336q190 180 298 409.5t108 489.5q0 514 -404 895l82 88q256 -215 384 -454.5t128 -528.5q0 -553 -512 -983z" />
<glyph unicode="*" horiz-adv-x="1040" d="M86 1049v127l371 -27l-211 303l116 70l158 -334l158 334l117 -70l-209 -303l368 27v-127l-368 24l209 -303l-115 -68l-160 334l-158 -334l-116 68l209 303z" />
<glyph unicode="+" horiz-adv-x="1306" d="M135 608v148h443v450h151v-450h445v-148h-445v-450h-151v450h-443z" />
<glyph unicode="," horiz-adv-x="555" d="M172 0v215h211v-190l-104 -240h-82l55 215h-80z" />
<glyph unicode="-" horiz-adv-x="731" d="M127 573v140h477v-140h-477z" />
<glyph unicode="." horiz-adv-x="555" d="M172 0v215h211v-215h-211z" />
<glyph unicode="/" horiz-adv-x="1159" d="M47 0l881 1516h184l-881 -1516h-184z" />
<glyph unicode="0" horiz-adv-x="1353" d="M106 757.5q0 360.5 152 573.5t420 213t417.5 -213t149.5 -573.5t-149.5 -573.5t-417.5 -213t-420 213t-152 573.5zM287 758q0 -303 104.5 -466t286.5 -163q184 0 286.5 162t102.5 467q0 303 -103.5 464.5t-285.5 161.5q-188 0 -289.5 -160.5t-101.5 -465.5z" />
<glyph unicode="1" horiz-adv-x="894" d="M111 0v160h284v1167q-131 -70 -280 -70v160q190 6 288 99h168v-1356h254v-160h-714z" />
<glyph unicode="2" horiz-adv-x="1212" d="M90 0v33q0 178 107.5 338.5t390.5 341.5q178 115 248.5 198.5t70.5 200.5q0 125 -75.5 198.5t-208.5 73.5q-233 0 -371 -249l-139 86q178 324 518 323q209 0 330.5 -115.5t121.5 -304.5q0 -152 -82.5 -267.5t-298.5 -250.5q-383 -244 -409 -446h799v-160h-1002z" />
<glyph unicode="3" horiz-adv-x="1222" d="M53 248l131 98q152 -217 404 -217q160 0 252 76t92 211q0 160 -109.5 235.5t-357.5 75.5h-62v150h72q227 0 323.5 66.5t96.5 197.5q0 242 -301 241q-211 0 -356 -172l-117 109q193 223 487 223q229 0 347 -106.5t118 -272.5q0 -141 -77.5 -234t-217.5 -124 q332 -66 332 -393q0 -195 -142.5 -318t-379.5 -123q-170 0 -308.5 72t-226.5 205z" />
<glyph unicode="4" horiz-adv-x="1267" d="M61 350v137l691 1029h215v-1008h256v-158h-256v-350h-174v350h-732zM260 508h533v797h-5z" />
<glyph unicode="5" horiz-adv-x="1202" d="M70 229l120 111q168 -211 390 -211q176 0 268 105.5t92 263.5q0 170 -90 261t-240 91q-209 0 -334 -176l-129 45l60 797h823l-14 -162h-664l-37 -484q117 131 330 131t343 -135t130 -360q0 -236 -144.5 -385.5t-389.5 -149.5q-164 0 -297 69.5t-217 188.5z" />
<glyph unicode="6" horiz-adv-x="1267" d="M106 731q0 362 174.5 587.5t440.5 225.5q221 0 371 -119l-91 -133q-125 94 -286 94q-195 0 -311.5 -175t-120.5 -449q184 193 422 192q227 0 352 -129t125 -346q0 -221 -147.5 -364.5t-375.5 -143.5q-248 0 -400.5 193.5t-152.5 566.5zM287 600q20 -240 122.5 -357.5 t260.5 -117.5q156 0 247 93t91 257q0 150 -81 238t-249 88q-115 0 -220 -56.5t-171 -144.5z" />
<glyph unicode="7" horiz-adv-x="1120" d="M88 1354v162h956v-152l-630 -1364h-185l627 1354h-768z" />
<glyph unicode="8" horiz-adv-x="1255" d="M74 371q0 147 98 247.5t291 182.5q-162 76 -241 159.5t-79 215.5q0 150 132.5 261t353.5 111q223 0 352 -110.5t129 -261.5q0 -127 -79 -211t-243 -158q203 -88 297.5 -183.5t94.5 -252.5q0 -174 -148.5 -289t-402.5 -115q-256 0 -405.5 114t-149.5 290zM254 381 q0 -117 104.5 -190.5t270.5 -73.5t269 71.5t103 192.5q0 113 -91 190.5t-294 161.5q-195 -88 -278.5 -165.5t-83.5 -186.5zM319 1171q0 -98 71 -160.5t247 -138.5q166 74 232.5 135.5t66.5 157.5q0 94 -79 163t-228 69q-147 0 -228.5 -67t-81.5 -159z" />
<glyph unicode="9" horiz-adv-x="1267" d="M86 1036q0 221 147.5 364.5t374.5 143.5q246 0 398.5 -193.5t152.5 -566.5q0 -362 -173 -587.5t-439 -225.5q-233 0 -387 131l88 134q139 -109 305 -109q193 0 309.5 176t120.5 451q-184 -193 -422 -193q-227 0 -351 129t-124 346zM260 1040q0 -150 80 -237.5t250 -87.5 q115 0 219 56t170 144q-18 240 -120.5 357t-260.5 117q-156 0 -247 -92.5t-91 -256.5z" />
<glyph unicode=":" horiz-adv-x="563" d="M176 0v215h211v-215h-211zM176 864v217h211v-217h-211z" />
<glyph unicode=";" horiz-adv-x="563" d="M176 0v215h211v-188l-106 -242h-82l57 215h-80zM176 864v217h211v-217h-211z" />
<glyph unicode="&#x3c;" horiz-adv-x="1306" d="M109 604v119l1083 465v-158l-885 -366l885 -367v-158z" />
<glyph unicode="=" horiz-adv-x="1306" d="M135 362v142h1034v-142h-1034zM135 829v142h1034v-142h-1034z" />
<glyph unicode="&#x3e;" horiz-adv-x="1306" d="M119 139v158l885 367l-885 366v158l1083 -465v-119z" />
<glyph unicode="?" horiz-adv-x="1124" d="M76 1288q203 256 497 256q207 0 328 -102.5t121 -267.5q0 -135 -65.5 -217.5t-192.5 -155.5q-125 -72 -154.5 -137.5t-29.5 -239.5h-144q-6 63 -6 137q0 109 45 181.5t146 131.5q129 80 176 134.5t47 154.5q0 102 -76 161.5t-207 59.5q-215 0 -364 -196zM403 0v211h209 v-211h-209z" />
<glyph unicode="@" horiz-adv-x="1777" d="M96 756q0 348 224.5 568t570.5 220q344 0 567 -215t223 -551q0 -211 -99 -336t-257 -125q-199 0 -248 156q-156 -145 -336 -145q-137 0 -219 83t-82 242q0 238 119 395.5t303 157.5q152 0 260 -108l15 92h143l-90 -606q-12 -76 27.5 -123t123.5 -47q106 0 174 93t68 267 q0 299 -194.5 487.5t-497.5 188.5q-305 0 -498.5 -193.5t-193.5 -500.5q0 -305 192.5 -500t493.5 -195q223 0 411 107l43 -74q-203 -123 -456 -123q-348 0 -567.5 218.5t-219.5 566.5zM586 668q0 -223 190 -224q139 0 268 123l62 408q-94 109 -236 108q-125 0 -204.5 -121.5 t-79.5 -293.5z" />
<glyph unicode="A" horiz-adv-x="1392" d="M66 0l536 1522h189l536 -1522h-186l-150 434h-602l-149 -434h-174zM444 592h492l-242 711h-4z" />
<glyph unicode="B" horiz-adv-x="1415" d="M186 0v1516h543q250 0 384 -96.5t134 -282.5q0 -147 -77.5 -235.5t-202.5 -115.5v-4q150 -29 239.5 -120t89.5 -248q0 -193 -137 -303.5t-387 -110.5h-586zM365 158h395q358 0 358 268q0 272 -395 272h-358v-540zM365 854h348q358 0 358 254q0 131 -85 189.5t-269 58.5 h-352v-502z" />
<glyph unicode="C" horiz-adv-x="1443" d="M113 764q0 352 178 566t465 214q444 0 561 -465l-172 -47q-51 178 -141.5 262t-249.5 84q-211 0 -335 -165.5t-124 -446.5q0 -299 124 -465t339 -166q317 0 411 367l170 -39q-57 -231 -204.5 -361.5t-378.5 -130.5q-293 0 -468 212t-175 581z" />
<glyph unicode="D" horiz-adv-x="1464" d="M186 0v1516h400q371 0 567.5 -188.5t196.5 -565.5q0 -379 -199 -570.5t-565 -191.5h-400zM367 162h241q281 0 421 144.5t140 455.5q0 301 -142 444.5t-423 143.5h-237v-1188z" />
<glyph unicode="E" horiz-adv-x="1247" d="M186 0v1516h930v-166h-749v-473h557v-162h-557v-551h792v-164h-973z" />
<glyph unicode="F" horiz-adv-x="1165" d="M186 0v1516h910v-166h-729v-488h536v-162h-536v-700h-181z" />
<glyph unicode="G" horiz-adv-x="1495" d="M113 764q0 356 179 568t466 212q442 0 561 -469l-168 -43q-53 184 -145.5 265t-249.5 81q-195 0 -328 -153.5t-133 -454.5q0 -307 129 -472t338 -165q180 0 288.5 117t110.5 323h-348v152h522v-725h-157v227h-4q-51 -109 -159 -182.5t-270 -73.5q-299 0 -465.5 219.5 t-166.5 573.5z" />
<glyph unicode="H" horiz-adv-x="1513" d="M186 0v1516h181v-635h780v635h180v-1516h-180v715h-780v-715h-181z" />
<glyph unicode="I" horiz-adv-x="593" d="M207 0v1516h180v-1516h-180z" />
<glyph unicode="J" horiz-adv-x="1034" d="M49 170l121 102q104 -143 258 -143q256 0 256 293v1094h180v-1106q0 -211 -113.5 -325t-316.5 -114q-242 0 -385 199z" />
<glyph unicode="K" horiz-adv-x="1388" d="M186 0v1516h181v-783l686 783h217l-520 -578l591 -938h-206l-504 801l-264 -289v-512h-181z" />
<glyph unicode="L" horiz-adv-x="1165" d="M186 0v1516h181v-1352h729v-164h-910z" />
<glyph unicode="M" horiz-adv-x="1798" d="M186 0v1516h236l477 -1289h4l469 1289h240v-1516h-178v1227h-4q-12 -49 -93 -279l-362 -948h-162l-362 948q-66 176 -95 285h-4v-1233h-166z" />
<glyph unicode="N" d="M186 0v1516h191l797 -1199h4v1199h170v-1516h-162l-826 1231h-4v-1231h-170z" />
<glyph unicode="O" d="M113 757.5q0 358.5 184 572.5t471 214t469 -213t182 -573.5t-182 -573.5t-469 -213t-471 214t-184 572.5zM295 758q0 -291 130 -458t343 -167q211 0 341 167t130 458t-130 456.5t-341 165.5q-213 0 -343 -165.5t-130 -456.5z" />
<glyph unicode="P" horiz-adv-x="1329" d="M186 0v1516h514q256 0 401.5 -106.5t145.5 -324.5q0 -229 -151.5 -336.5t-407.5 -107.5h-321v-641h-181zM367 801h331q186 0 278.5 64.5t92.5 213.5q0 143 -92 208t-281 65h-329v-551z" />
<glyph unicode="Q" d="M113 758q0 356 186 571t469 215q281 0 466 -215t185 -571q0 -330 -159.5 -540t-411.5 -238q14 -121 95 -165t237 -44h104v-156h-158q-223 0 -339.5 100.5t-120.5 266.5q-246 33 -399.5 242.5t-153.5 533.5zM293 758q0 -291 131 -459t344 -168q209 0 339 168t130 459 t-129 456.5t-340 165.5q-213 0 -344 -165.5t-131 -456.5z" />
<glyph unicode="R" horiz-adv-x="1386" d="M186 0v1516h521q260 0 399 -109t139 -315q0 -342 -352 -416l373 -676h-197l-362 653h-342v-653h-179zM365 813h331q186 0 278.5 61.5t92.5 210.5q0 143 -92 205t-281 62h-329v-539z" />
<glyph unicode="S" horiz-adv-x="1345" d="M111 367l151 67q113 -303 430 -303q162 0 258.5 65.5t96.5 184.5q0 113 -80 180.5t-301 136.5q-268 82 -386 172.5t-118 272.5q0 174 136 287.5t351 113.5q205 0 338 -92t197 -248l-144 -80q-115 256 -393 256q-141 0 -224 -62.5t-83 -160.5q0 -117 82 -176t317 -133 q252 -78 369 -175.5t117 -279.5q0 -188 -149.5 -305t-391.5 -117q-213 0 -362.5 107t-210.5 289z" />
<glyph unicode="T" horiz-adv-x="1275" d="M66 1350v166h1144v-166h-483v-1350h-180v1350h-481z" />
<glyph unicode="U" horiz-adv-x="1468" d="M172 524v992h180v-967q0 -190 95.5 -302t289.5 -112q193 0 287 108.5t94 301.5v971h178v-988q0 -248 -145 -401.5t-416 -153.5q-281 0 -422 151.5t-141 399.5z" />
<glyph unicode="V" horiz-adv-x="1363" d="M66 1516h184l434 -1280h4l436 1280h174l-532 -1522h-168z" />
<glyph unicode="W" horiz-adv-x="1906" d="M74 1516h182l223 -879q66 -248 88 -371h4q31 162 86 369l211 881h183l217 -887q74 -305 84 -363h4q16 82 84 357l221 893h172l-401 -1516h-166l-305 1268h-5l-313 -1268h-166z" />
<glyph unicode="X" horiz-adv-x="1372" d="M66 0l520 809l-457 707h207l358 -564l353 564h190l-453 -705l523 -811h-197l-428 668l-430 -668h-186z" />
<glyph unicode="Y" horiz-adv-x="1292" d="M45 1516h193l411 -699l410 699h188l-512 -852v-664h-180v664z" />
<glyph unicode="Z" horiz-adv-x="1290" d="M82 0v127l887 1237h-830v152h1051v-132l-881 -1234h881v-150h-1108z" />
<glyph unicode="[" horiz-adv-x="817" d="M172 -410v1926h555v-132h-377v-1663h377v-131h-555z" />
<glyph unicode="\" horiz-adv-x="1138" d="M37 1516h184l881 -1516h-184z" />
<glyph unicode="]" horiz-adv-x="817" d="M88 -279h377v1661h-377v134h555v-1926h-555v131z" />
<glyph unicode="^" horiz-adv-x="1060" d="M201 1192l264 330h129l264 -330h-106l-224 192l-221 -192h-106z" />
<glyph unicode="_" horiz-adv-x="1024" d="M0 -133h1024v-137h-1024v137z" />
<glyph unicode="`" horiz-adv-x="1024" d="M279 1522h215l192 -324h-117z" />
<glyph unicode="a" horiz-adv-x="1132" d="M90 256q0 172 168 283.5t555 167.5v49q0 201 -205 200q-203 0 -391 -163l-92 110q219 201 502 201q360 0 360 -361v-477q0 -190 31 -266h-180q-25 78 -25 150q-178 -166 -418 -166q-141 0 -223 71.5t-82 200.5zM264 283q0 -78 48 -119t134 -41q205 0 367 158v303 q-297 -47 -423 -121t-126 -180z" />
<glyph unicode="b" horiz-adv-x="1226" d="M156 0v1516h176v-586q156 174 356 174q195 0 317.5 -144.5t122.5 -417t-125.5 -415.5t-332.5 -143q-188 0 -338 155v-139h-176zM332 291q145 -164 313 -164q145 0 226 102.5t81 311.5q0 201 -84 306t-221 105q-164 0 -315 -166v-495z" />
<glyph unicode="c" horiz-adv-x="1097" d="M94 541q0 276 147.5 419.5t348.5 143.5q299 0 424 -303l-150 -62q-82 215 -278 215q-131 0 -222.5 -100t-91.5 -313q0 -197 85 -306.5t225 -109.5q104 0 171.5 50t118.5 167l146 -57q-70 -147 -174.5 -227.5t-268.5 -80.5q-201 0 -341 150t-140 414z" />
<glyph unicode="d" horiz-adv-x="1226" d="M96 538.5q0 272.5 127 419t334 146.5q197 0 336 -160v572h176v-1250q0 -193 33 -266h-184q-25 70 -25 154q-156 -170 -356 -170q-195 0 -318 141t-123 413.5zM272 537q0 -199 85 -303.5t223 -104.5q162 0 313 166v496q-145 164 -311 163q-145 0 -227.5 -104t-82.5 -313z " />
<glyph unicode="e" horiz-adv-x="1130" d="M94 541q0 141 44 252.5t116 177t157 99.5t173 34q203 0 326.5 -144.5t123.5 -427.5v-36h-764q4 -176 95.5 -275.5t230.5 -99.5q111 0 185.5 43t140.5 133l102 -90q-160 -229 -440 -230q-205 0 -347.5 148t-142.5 416zM274 633h592q-10 150 -82.5 236.5t-201.5 86.5 q-117 0 -203.5 -81.5t-104.5 -241.5z" />
<glyph unicode="f" horiz-adv-x="704" d="M51 936v145h189v146q0 293 325 293q16 0 55 -3.5t46 -3.5v-143q-25 6 -76 6q-174 0 -174 -151v-144h237v-145h-237v-936h-176v936h-189z" />
<glyph unicode="g" horiz-adv-x="1177" d="M35 -147q0 164 196 239q-92 43 -92 137q0 96 135 174q-166 106 -165 312q0 170 123.5 279.5t316 109.5t319.5 -113q111 84 256 101v-156q-104 0 -194 -35q55 -78 55 -186q0 -174 -123 -279.5t-313 -105.5q-82 0 -172 26q-76 -35 -76 -84q0 -35 33 -51t117 -24l221 -19 q414 -29 413 -280q0 -150 -143 -232t-385 -82q-522 1 -522 269zM199 -121q0 -82 91 -122t290 -40q160 0 252 45t92 119t-65.5 109t-233.5 47l-205 14l-62 6q-159 -57 -159 -178zM276 710.5q0 -116.5 75 -184t200 -67.5t197.5 67.5t72.5 184.5q0 119 -71.5 187.5t-200.5 68.5 q-125 0 -199 -70t-74 -186.5z" />
<glyph unicode="h" horiz-adv-x="1204" d="M156 0v1516h178v-596q188 184 405 184q154 0 237 -85t83 -239v-780h-176v741q0 109 -48.5 160t-150.5 51q-166 0 -350 -174v-778h-178z" />
<glyph unicode="i" horiz-adv-x="512" d="M164 1313v172h184v-172h-184zM168 0v1081h176v-1081h-176z" />
<glyph unicode="j" horiz-adv-x="512" d="M-12 -270q37 -8 69 -9q111 0 111 125v1235h176v-1247q0 -119 -56.5 -182.5t-193.5 -63.5q-49 0 -106 9v133zM164 1313v172h184v-172h-184z" />
<glyph unicode="k" horiz-adv-x="1105" d="M156 0v1516h176v-975l483 540h201l-354 -387l393 -694h-189l-319 563l-215 -231v-332h-176z" />
<glyph unicode="l" horiz-adv-x="512" d="M168 0v1516h176v-1516h-176z" />
<glyph unicode="m" horiz-adv-x="1878" d="M156 0v1081h176v-163q186 186 389 186q236 0 297 -191q195 190 399 191q160 0 237 -86t77 -238v-780h-177v741q0 111 -42 161t-146 50q-150 0 -334 -174v-778h-176v741q0 111 -42 161t-146 50q-147 0 -336 -174v-778h-176z" />
<glyph unicode="n" horiz-adv-x="1204" d="M156 0v1081h178v-161q188 184 405 184q154 0 237 -85t83 -239v-780h-176v741q0 109 -48.5 160t-150.5 51q-166 0 -350 -174v-778h-178z" />
<glyph unicode="o" horiz-adv-x="1193" d="M94 540.5q0 266.5 145.5 415t358.5 148.5q211 0 356.5 -148.5t145.5 -415t-145.5 -415t-356.5 -148.5t-357.5 148.5t-146.5 415zM272 541q0 -182 84 -298t242 -116q152 0 238 112.5t86 301.5q0 178 -84 294.5t-240 116.5q-154 0 -240 -112.5t-86 -298.5z" />
<glyph unicode="p" horiz-adv-x="1226" d="M156 -410v1491h176v-149q156 172 356 172q195 0 317.5 -144.5t122.5 -417t-125.5 -415.5t-332.5 -143q-188 0 -338 155v-549h-176zM332 291q145 -164 313 -164q145 0 226 102.5t81 311.5q0 201 -84 306t-221 105q-164 0 -315 -166v-495z" />
<glyph unicode="q" horiz-adv-x="1226" d="M96 538.5q0 272.5 127 419t334 146.5q188 0 336 -158v135h176v-1491h-176v564q-156 -170 -356 -170q-195 0 -318 141t-123 413.5zM272 537q0 -199 85 -303.5t223 -104.5q162 0 313 166v496q-145 164 -311 163q-145 0 -227.5 -104t-82.5 -313z" />
<glyph unicode="r" horiz-adv-x="819" d="M156 0v1081h176v-200h4q143 223 418 223h22l-12 -164q-6 2 -51 2q-254 0 -381 -244v-698h-176z" />
<glyph unicode="s" horiz-adv-x="1048" d="M78 164l106 106q139 -150 338 -149q260 0 260 170q0 78 -64.5 118t-213.5 74q-199 47 -293 115t-94 211q0 127 103.5 211t275.5 84q248 0 413 -156l-92 -117q-139 129 -313 130q-111 0 -165 -41t-54 -105q0 -72 59 -108.5t197 -67.5q106 -27 169.5 -48.5t125 -60t89 -95 t27.5 -138.5q0 -152 -120.5 -234.5t-311.5 -82.5q-141 0 -256.5 50t-185.5 134z" />
<glyph unicode="t" horiz-adv-x="772" d="M45 936v145h188v385h177v-385h280v-145h-280v-635q0 -90 36.5 -131t131.5 -41q61 0 110 14v-145q-61 -12 -153 -12q-166 0 -234 65.5t-68 210.5v674h-188z" />
<glyph unicode="u" horiz-adv-x="1204" d="M145 301v780h177v-743q0 -109 48 -160t150 -51q166 0 350 174v780h179v-1081h-179v162q-186 -182 -405 -182q-154 0 -237 83.5t-83 237.5z" />
<glyph unicode="v" horiz-adv-x="1054" d="M41 1081h188l303 -876h5l299 876h176l-396 -1085h-178z" />
<glyph unicode="w" horiz-adv-x="1540" d="M45 1081h182l142 -508q63 -225 94 -360h4q45 184 94 362l137 506h154l141 -516q45 -156 90 -352h4q53 207 95 348l147 520h166l-330 -1081h-164l-229 846h-4l-231 -846h-162z" />
<glyph unicode="x" horiz-adv-x="1060" d="M55 0l385 559l-358 522h192l265 -395l262 395h186l-360 -520l383 -561h-191l-291 430l-288 -430h-185z" />
<glyph unicode="y" horiz-adv-x="1091" d="M14 -389l41 141q70 -18 160 -18q82 0 128 35.5t79 117.5l41 107l-418 1087h186l318 -874h4l317 874h179l-463 -1204q-59 -154 -139 -223.5t-230 -69.5q-115 0 -203 27z" />
<glyph unicode="z" horiz-adv-x="1044" d="M80 0v106l633 832h-584v143h805v-110l-635 -830h666v-141h-885z" />
<glyph unicode="{" horiz-adv-x="800" d="M68 487v131q123 0 175 51.5t52 194.5v369q0 283 270 283h158v-132h-90q-160 0 -160 -157v-377q0 -141 -42 -202.5t-132 -92.5v-4q90 -31 132 -92.5t42 -202.5v-377q0 -158 160 -158h90v-131h-158q-270 0 -270 283v369q0 143 -52 194t-175 51z" />
<glyph unicode="|" horiz-adv-x="727" d="M276 -410v1926h173v-1926h-173z" />
<glyph unicode="}" horiz-adv-x="800" d="M78 -279h90q160 0 160 158v387q0 139 41 196.5t133 88.5v4q-92 31 -133 88t-41 197v387q0 164 -154 164h-90l-6 125h168q137 0 198.5 -68t61.5 -205v-379q0 -143 52 -194.5t175 -51.5v-131q-123 0 -175 -51t-52 -194v-379q0 -137 -61.5 -205t-198.5 -68h-168v131z" />
<glyph unicode="~" horiz-adv-x="1040" d="M180 838q0 244 189 243q66 0 164 -57t137 -57q84 0 84 110h104q0 -244 -186 -243q-66 0 -164 57t-135 57q-45 0 -64.5 -25.5t-19.5 -84.5h-109z" />
<glyph unicode="&#xa1;" horiz-adv-x="657" d="M217 0l51 1090h115l53 -1090h-219zM221 1305v211h211v-211h-211z" />
<glyph unicode="&#xa2;" horiz-adv-x="1101" d="M94 541q0 274 147.5 418.5t348.5 144.5q39 0 57 -2l58 205h110l-63 -228q174 -63 264 -278l-144 -62q-61 152 -167 197l-222 -801q43 -14 99 -14q102 0 172.5 51t126.5 170l139 -57q-143 -307 -445 -308q-63 0 -124 17l-72 -258h-113l84 299q-117 66 -186.5 196 t-69.5 310zM262 541q0 -248 135 -359l213 774h-24q-133 0 -228.5 -101t-95.5 -314z" />
<glyph unicode="&#xa3;" horiz-adv-x="1277" d="M55 182q0 106 67.5 171t178.5 65q98 0 217 -82q6 45 6 106q0 131 -78 283h-266v131h193q-94 170 -94 297q0 174 108.5 282.5t294.5 108.5q203 0 301 -109.5t119 -275.5l-164 -24q-25 258 -256 258q-109 0 -169 -64.5t-60 -173.5q0 -49 19.5 -108.5t32.5 -86t54 -104.5 h354v-131h-290q59 -133 59 -268q0 -123 -35 -221q47 -39 76 -59.5t74 -39t86 -18.5q96 0 137 60.5t49 201.5h160q-10 -410 -328 -410q-147 0 -319 148q-106 -147 -293 -148q-92 0 -163 55.5t-71 155.5zM186 186q0 -47 31 -74.5t80 -27.5q127 0 182 123q-106 92 -178 92 q-53 0 -84 -31t-31 -82z" />
<glyph unicode="&#xa4;" horiz-adv-x="1476" d="M43 530v136h240q-2 33 -2 98q0 53 2 78h-240v133h254q43 281 196.5 425t364.5 144q203 0 320.5 -111.5t173.5 -316.5l-162 -51q-49 170 -119 245.5t-213 75.5q-147 0 -249.5 -103t-137.5 -308h438v-133h-452q-2 -23 -2 -72q0 -18 1 -53t1 -51h452v-136h-436 q68 -403 389 -403q141 0 222 83t126 259l162 -47q-123 -451 -512 -451q-217 0 -366.5 141.5t-194.5 417.5h-256z" />
<glyph unicode="&#xa5;" horiz-adv-x="1288" d="M49 1516h193l405 -689l404 689h188l-502 -834h387v-131h-391v-180h391v-131h-391v-240h-180v240h-387v131h387v180h-387v131h381z" />
<glyph unicode="&#xa6;" horiz-adv-x="727" d="M276 -410v838h173v-838h-173zM276 678v838h173v-838h-173z" />
<glyph unicode="&#xa7;" horiz-adv-x="1105" d="M111 596q0 203 249 332q-104 78 -145 143.5t-41 153.5q0 131 103.5 225t275.5 94q346 0 418 -297l-148 -53q-59 213 -264 213q-109 0 -163 -50t-54 -124q0 -70 56.5 -128t203.5 -142q221 -129 306 -213t85 -211q0 -207 -248 -334q102 -76 139.5 -140.5t37.5 -154.5 q0 -133 -98.5 -226.5t-270.5 -93.5q-336 0 -412 297l144 50q31 -104 88 -155.5t174 -51.5q109 0 158 48t49 124q0 72 -54.5 130t-197.5 140q-221 129 -306 213t-85 211zM268 621q0 -82 62.5 -141.5t265.5 -180.5q16 -8 39 -20q203 94 203 235q0 82 -62.5 141.5t-265.5 180.5 l-41 20q-201 -94 -201 -235z" />
<glyph unicode="&#xa8;" horiz-adv-x="1044" d="M244 1194v192h180v-192h-180zM616 1194v192h183v-192h-183z" />
<glyph unicode="&#xa9;" horiz-adv-x="1769" d="M102 756q0 330 227.5 559t557.5 229q328 0 554 -228.5t226 -555.5q0 -330 -227.5 -559.5t-554.5 -229.5q-330 0 -556.5 228.5t-226.5 556.5zM205 760q0 -289 197.5 -491.5t484.5 -202.5q285 0 481.5 200.5t196.5 489t-198 491.5t-482 203q-287 0 -483.5 -200.5 t-196.5 -489.5zM520 770q0 199 98.5 321.5t264.5 122.5q252 0 321 -272l-110 -29q-29 100 -78 148.5t-133 48.5q-109 0 -174.5 -93t-65.5 -247q0 -160 64.5 -252t177.5 -92q164 0 217 209q104 -29 115 -29q-76 -289 -336 -289q-164 0 -262.5 124t-98.5 329z" />
<glyph unicode="&#xaa;" horiz-adv-x="862" d="M100 946q0 123 118 201t388 115v32q0 137 -137 138q-147 0 -270 -113l-76 76q152 145 360 145q258 0 258 -254v-330q0 -129 27 -188h-143q-16 49 -19 102q-131 -119 -284 -118q-102 0 -162 51t-60 143zM236 965q0 -102 120 -103q135 0 250 109v205q-209 -31 -289.5 -84 t-80.5 -127z" />
<glyph unicode="&#xab;" horiz-adv-x="1110" d="M84 543l309 538h178l-301 -538l301 -543h-178zM512 543l313 538h176l-305 -538l305 -543h-176z" />
<glyph unicode="&#xac;" horiz-adv-x="1556" d="M20 662v190l369 -31l-12 209l-64 -4v148l56 -5l-4 54h147l-4 -62l207 -14l-31 369h190l-30 -369l207 14l-4 62h147l-4 -54l55 5v-148l-63 4l-15 -209l369 31v-190l-369 30l15 -205l63 5v-148l-55 4l4 -57h-147l4 65l-207 13l30 -369h-190l31 369l-207 -13l4 -65h-147 l4 57l-56 -4v148l64 -5l12 205zM487 692l13 -213l215 -12v225h-228zM487 821h228v228l-215 -13zM844 467l213 12l12 213h-225v-225zM844 821h225l-12 215l-213 13v-228z" />
<glyph unicode="&#xad;" horiz-adv-x="731" d="M127 573v140h477v-140h-477z" />
<glyph unicode="&#xae;" horiz-adv-x="1769" d="M102 756q0 330 227.5 559t557.5 229q328 0 554 -228.5t226 -555.5q0 -330 -227.5 -559.5t-554.5 -229.5q-330 0 -556.5 228.5t-226.5 556.5zM205 760q0 -289 197.5 -491.5t484.5 -202.5q285 0 481.5 200.5t196.5 489t-198 491.5t-482 203q-287 0 -483.5 -200.5 t-196.5 -489.5zM596 342v862h303q147 0 228 -63.5t81 -182.5q0 -190 -190 -237l205 -379h-131l-195 365h-180v-365h-121zM717 803h176q195 0 194 149q0 143 -196 144h-174v-293z" />
<glyph unicode="&#xaf;" horiz-adv-x="1024" d="M213 1266v141h598v-141h-598z" />
<glyph unicode="&#xb0;" horiz-adv-x="829" d="M117 1249q0 127 85 210t214 83q127 0 212 -83t85 -210t-85 -211t-212 -84q-129 0 -214 84t-85 211zM236 1249q0 -84 51 -137t129 -53t128 53t50 137t-50 136.5t-128 52.5q-80 0 -130 -52.5t-50 -136.5z" />
<glyph unicode="&#xb1;" horiz-adv-x="1804" d="M51 936v145h189v146q0 139 77.5 216t233.5 77q18 0 55 -3.5t43 -3.5v-143q-18 4 -71 4q-162 0 -162 -151v-142h436v140q0 141 79 220t232 79q16 0 52 -3.5t45 -3.5v-143q-16 4 -72 4q-160 0 -160 -151v-142h223v-145h-223v-936h-176v936h-436v-936h-176v936h-189zM1462 0 v1516h176v-1516h-176z" />
<glyph unicode="&#xb2;" horiz-adv-x="925" d="M133 565v41q0 113 66.5 213.5t242.5 212.5q100 66 141.5 114t41.5 111q0 68 -40 108t-112 40q-131 0 -217 -162l-115 68q115 225 336 225q137 0 217 -76t80 -198q0 -98 -54 -173t-192 -157q-205 -125 -225 -236h475v-131h-645z" />
<glyph unicode="&#xb3;" horiz-adv-x="925" d="M109 745l104 80q92 -147 240 -147q90 0 139 44t49 116q0 88 -59.5 131t-196.5 43h-57v114h63q231 0 232 146q0 61 -40 97t-120 36q-121 0 -219 -115l-97 88q135 158 324 158q150 0 226.5 -70.5t76.5 -179.5q0 -160 -158 -215q180 -55 181 -233q0 -131 -92.5 -211 t-245.5 -80q-229 -1 -350 198z" />
<glyph unicode="&#xb4;" horiz-adv-x="1024" d="M338 1198l192 324h215l-290 -324h-117z" />
<glyph unicode="&#xb5;" horiz-adv-x="1214" d="M156 -410v1491h176v-743q0 -213 200 -213q162 0 351 174v782h176v-1081h-176v174q-182 -178 -363 -188q-131 -4 -188 59v-455h-176z" />
<glyph unicode="&#xb6;" horiz-adv-x="1275" d="M119 1096q0 184 124 302t345 118h514v-1926h-139v1782h-205v-1782h-142v1092q-244 4 -370.5 108.5t-126.5 305.5z" />
<glyph unicode="&#xb7;" horiz-adv-x="559" d="M172 551v215h215v-215h-215z" />
<glyph unicode="&#xb8;" horiz-adv-x="1024" d="M256 -328l41 68q92 -61 205 -62q141 0 141 93q0 70 -82 69q-51 0 -102 -41l-64 31l54 170h96l-31 -106q47 31 115 30q59 0 102 -37t43 -102q0 -92 -71.5 -139t-184.5 -47q-149 -1 -262 73z" />
<glyph unicode="&#xb9;" horiz-adv-x="831" d="M188 563v129h172v664q-70 -31 -167 -31v129q129 2 182 59h135v-821h154v-129h-476z" />
<glyph unicode="&#xba;" horiz-adv-x="892" d="M88 1145q0 190 103.5 292.5t255 102.5t255 -102.5t103.5 -292.5q0 -186 -104.5 -289.5t-254 -103.5t-254 103.5t-104.5 289.5zM225 1147q0 -123 56.5 -205t164.5 -82q102 0 162 80t60 207q0 121 -57.5 204t-164.5 83q-102 0 -161.5 -80t-59.5 -207z" />
<glyph unicode="&#xbb;" horiz-adv-x="1110" d="M109 0l303 543l-303 538h178l311 -538l-311 -543h-178zM539 0l303 543l-303 538h176l311 -538l-311 -543h-176z" />
<glyph unicode="&#xbc;" horiz-adv-x="1961" d="M188 563v129h172v664q-70 -31 -167 -31v129q129 2 182 59h135v-821h154v-129h-476zM471 0l907 1516h160l-907 -1516h-160zM1102 223v99l424 632h162v-604h153v-127h-153v-223h-150v223h-436zM1270 350h270v408z" />
<glyph unicode="&#xbd;" horiz-adv-x="2037" d="M188 563v129h172v664q-70 -31 -167 -31v129q129 2 182 59h135v-821h154v-129h-476zM471 0l907 1516h160l-907 -1516h-160zM1245 0v43q0 113 65.5 212t243.5 212q100 66 141.5 114t41.5 111q0 68 -40 108t-114 40q-131 0 -217 -162l-113 70q117 223 334 223q137 0 217 -75 t80 -200q0 -96 -54 -170.5t-192 -156.5q-207 -129 -223 -238h475v-131h-645z" />
<glyph unicode="&#xbe;" horiz-adv-x="2021" d="M109 745l104 80q92 -147 240 -147q90 0 139 44t49 116q0 88 -59.5 131t-196.5 43h-57v114h63q231 0 232 146q0 61 -40 97t-120 36q-121 0 -219 -115l-97 88q135 158 324 158q150 0 226.5 -70.5t76.5 -179.5q0 -160 -158 -215q180 -55 181 -233q0 -131 -92.5 -211 t-245.5 -80q-229 -1 -350 198zM532 0l906 1516h159l-905 -1516h-160zM1161 223v99l424 632h162v-604h154v-127h-154v-223h-150v223h-436zM1329 350h270v408z" />
<glyph unicode="&#xbf;" horiz-adv-x="1124" d="M102 342q0 135 65.5 217t192.5 156q125 72 155 137.5t30 239.5h143q6 -63 6 -138q0 -109 -45 -181.5t-143 -131.5q-129 -78 -177 -133t-48 -156q0 -102 75.5 -161.5t206.5 -59.5q215 0 365 197l121 -101q-203 -256 -498 -256q-207 0 -328 102.5t-121 268.5zM512 1305v211 h209v-211h-209z" />
<glyph unicode="&#xc0;" horiz-adv-x="1392" d="M66 0l536 1522h189l536 -1522h-186l-150 434h-602l-149 -434h-174zM354 1933h215l193 -323h-117zM444 592h492l-242 711h-4z" />
<glyph unicode="&#xc1;" horiz-adv-x="1392" d="M66 0l536 1522h189l536 -1522h-186l-150 434h-602l-149 -434h-174zM444 592h492l-242 711h-4zM633 1610l192 323h215l-290 -323h-117z" />
<glyph unicode="&#xc2;" horiz-adv-x="1392" d="M66 0l536 1522h189l536 -1522h-186l-150 434h-602l-149 -434h-174zM367 1604l264 329h129l264 -329h-106l-224 192l-221 -192h-106zM444 592h492l-242 711h-4z" />
<glyph unicode="&#xc3;" horiz-adv-x="1392" d="M66 0l536 1522h189l536 -1522h-186l-150 434h-602l-149 -434h-174zM358 1604q0 244 189 243q66 0 164 -57t137 -57q84 0 84 110h104q0 -244 -186 -244q-66 0 -164 57.5t-135 57.5q-45 0 -64.5 -25.5t-19.5 -84.5h-109zM444 592h492l-242 711h-4z" />
<glyph unicode="&#xc4;" horiz-adv-x="1392" d="M66 0l536 1522h189l536 -1522h-186l-150 434h-602l-149 -434h-174zM418 1606v192h180v-192h-180zM444 592h492l-242 711h-4zM791 1606v192h182v-192h-182z" />
<glyph unicode="&#xc5;" horiz-adv-x="1392" d="M66 0l520 1477q-84 53 -84 161q0 82 55 136.5t139 54.5t139.5 -54.5t55.5 -136.5q0 -109 -84 -161l520 -1477h-186l-150 434h-602l-149 -434h-174zM444 592h492l-242 711h-4zM590 1638q0 -49 29.5 -80.5t76.5 -31.5t77 31.5t30 80.5q0 47 -31 79t-76 32t-75.5 -32 t-30.5 -79z" />
<glyph unicode="&#xc6;" horiz-adv-x="2068" d="M51 0l862 1516h1022v-166h-747v-473h555v-162h-555v-551h790v-164h-968v467h-512l-265 -467h-182zM588 627h422v741h-2z" />
<glyph unicode="&#xc7;" horiz-adv-x="1443" d="M113 764q0 350 179 565t464 215q444 0 561 -465l-172 -47q-51 180 -141.5 269.5t-249.5 89.5q-211 0 -335 -171t-124 -454q0 -299 125 -471t338 -172q313 0 411 379l170 -39q-55 -227 -197.5 -356.5t-365.5 -135.5l-24 -77q47 31 114 30q61 0 103.5 -37t42.5 -102 q0 -92 -72 -139t-182 -47q-152 0 -264 73l43 68q92 -61 202 -62q141 0 142 93q0 70 -82 69q-51 0 -103 -41l-61 31l43 145q-258 29 -411.5 239t-153.5 550z" />
<glyph unicode="&#xc8;" horiz-adv-x="1247" d="M186 0v1516h930v-166h-749v-473h557v-162h-557v-551h792v-164h-973zM350 1933h215l193 -323h-117z" />
<glyph unicode="&#xc9;" horiz-adv-x="1247" d="M186 0v1516h930v-166h-749v-473h557v-162h-557v-551h792v-164h-973zM545 1610l192 323h215l-290 -323h-117z" />
<glyph unicode="&#xca;" horiz-adv-x="1247" d="M186 0v1516h930v-166h-749v-473h557v-162h-557v-551h792v-164h-973zM322 1604l264 329h129l264 -329h-107l-223 192l-221 -192h-106z" />
<glyph unicode="&#xcb;" horiz-adv-x="1247" d="M186 0v1516h930v-166h-749v-473h557v-162h-557v-551h792v-164h-973zM383 1606v192h180v-192h-180zM756 1606v192h182v-192h-182z" />
<glyph unicode="&#xcc;" horiz-adv-x="593" d="M-33 1933h215l193 -323h-117zM207 0v1516h180v-1516h-180z" />
<glyph unicode="&#xcd;" horiz-adv-x="593" d="M207 0v1516h180v-1516h-180zM238 1610l192 323h215l-291 -323h-116z" />
<glyph unicode="&#xce;" horiz-adv-x="593" d="M-33 1604l264 329h129l265 -329h-107l-223 192l-221 -192h-107zM207 0v1516h180v-1516h-180z" />
<glyph unicode="&#xcf;" horiz-adv-x="593" d="M18 1606v192h181v-192h-181zM207 0v1516h180v-1516h-180zM391 1606v192h182v-192h-182z" />
<glyph unicode="&#xd0;" horiz-adv-x="1464" d="M23 721v147h163v648h400q371 0 567.5 -189.5t196.5 -568.5q0 -375 -199 -566.5t-565 -191.5h-400v721h-163zM367 162h241q281 0 421 144.5t140 455.5q0 301 -142 444.5t-423 143.5h-237v-482h323v-147h-323v-559z" />
<glyph unicode="&#xd1;" d="M186 0v1516h191l797 -1199h4v1199h170v-1516h-162l-826 1231h-4v-1231h-170zM444 1604q0 244 189 243q66 0 164 -57t137 -57q84 0 84 110h104q0 -244 -186 -244q-66 0 -164 57.5t-135 57.5q-45 0 -64.5 -25.5t-19.5 -84.5h-109z" />
<glyph unicode="&#xd2;" d="M113 757.5q0 358.5 184 572.5t471 214t469 -213t182 -573.5t-182 -573.5t-469 -213t-471 214t-184 572.5zM295 758q0 -291 130 -458t343 -167q211 0 341 167t130 458t-130 456.5t-341 165.5q-213 0 -343 -165.5t-130 -456.5zM442 1933h215l193 -323h-117z" />
<glyph unicode="&#xd3;" d="M113 757.5q0 358.5 184 572.5t471 214t469 -213t182 -573.5t-182 -573.5t-469 -213t-471 214t-184 572.5zM295 758q0 -291 130 -458t343 -167q211 0 341 167t130 458t-130 456.5t-341 165.5q-213 0 -343 -165.5t-130 -456.5zM676 1610l192 323h215l-290 -323h-117z" />
<glyph unicode="&#xd4;" d="M113 757.5q0 358.5 184 572.5t471 214t469 -213t182 -573.5t-182 -573.5t-469 -213t-471 214t-184 572.5zM295 758q0 -291 130 -458t343 -167q211 0 341 167t130 458t-130 456.5t-341 165.5q-213 0 -343 -165.5t-130 -456.5zM436 1604l264 329h129l265 -329h-107 l-223 192l-221 -192h-107z" />
<glyph unicode="&#xd5;" d="M113 757.5q0 358.5 184 572.5t471 214t469 -213t182 -573.5t-182 -573.5t-469 -213t-471 214t-184 572.5zM295 758q0 -291 130 -458t343 -167q211 0 341 167t130 458t-130 456.5t-341 165.5q-213 0 -343 -165.5t-130 -456.5zM426 1604q0 244 188 243q66 0 164.5 -57 t136.5 -57q84 0 84 110h105q0 -244 -186 -244q-66 0 -164.5 57.5t-135.5 57.5q-45 0 -64 -25.5t-19 -84.5h-109z" />
<glyph unicode="&#xd6;" d="M113 757.5q0 358.5 184 572.5t471 214t469 -213t182 -573.5t-182 -573.5t-469 -213t-471 214t-184 572.5zM295 758q0 -291 130 -458t343 -167q211 0 341 167t130 458t-130 456.5t-341 165.5q-213 0 -343 -165.5t-130 -456.5zM487 1606v192h181v-192h-181zM860 1606v192 h182v-192h-182z" />
<glyph unicode="&#xd7;" horiz-adv-x="1306" d="M201 305l346 346l-346 346l104 105l346 -348l346 348l105 -105l-346 -346l348 -346l-105 -104l-346 348l-348 -350z" />
<glyph unicode="&#xd8;" d="M113 758q0 358 184 572t471 214q244 0 412 -155l135 167l98 -73l-147 -189q154 -213 153 -536q0 -360 -182 -573.5t-469 -213.5q-242 0 -416 156l-133 -168l-100 74l149 188q-155 211 -155 537zM291 758q0 -242 92 -402l694 897q-121 131 -309 131q-213 0 -345 -167.5 t-132 -458.5zM453 262q127 -133 315 -133q211 0 342 169t131 460q0 240 -92 399z" />
<glyph unicode="&#xd9;" horiz-adv-x="1468" d="M172 524v992h180v-967q0 -190 95.5 -302t289.5 -112q193 0 287 108.5t94 301.5v971h178v-988q0 -248 -145 -401.5t-416 -153.5q-281 0 -422 151.5t-141 399.5zM422 1933h215l192 -323h-116z" />
<glyph unicode="&#xda;" horiz-adv-x="1468" d="M172 524v992h180v-967q0 -190 95.5 -302t289.5 -112q193 0 287 108.5t94 301.5v971h178v-988q0 -248 -145 -401.5t-416 -153.5q-281 0 -422 151.5t-141 399.5zM625 1610l192 323h215l-291 -323h-116z" />
<glyph unicode="&#xdb;" horiz-adv-x="1468" d="M172 524v992h180v-967q0 -190 95.5 -302t289.5 -112q193 0 287 108.5t94 301.5v971h178v-988q0 -248 -145 -401.5t-416 -153.5q-281 0 -422 151.5t-141 399.5zM403 1604l265 329h129l264 -329h-107l-223 192l-221 -192h-107z" />
<glyph unicode="&#xdc;" horiz-adv-x="1468" d="M172 524v992h180v-967q0 -190 95.5 -302t289.5 -112q193 0 287 108.5t94 301.5v971h178v-988q0 -248 -145 -401.5t-416 -153.5q-281 0 -422 151.5t-141 399.5zM455 1606v192h180v-192h-180zM827 1606v192h183v-192h-183z" />
<glyph unicode="&#xdd;" horiz-adv-x="1292" d="M45 1516h193l411 -699l410 699h188l-512 -852v-664h-180v664zM477 1626l193 324h215l-291 -324h-117z" />
<glyph unicode="&#xde;" horiz-adv-x="1337" d="M186 0v1516h181v-277h331q256 -2 402.5 -108.5t146.5 -323.5q0 -231 -153.5 -340t-407.5 -109h-319v-358h-181zM367 522h327q186 0 278.5 64.5t92.5 214.5q0 143 -92 206.5t-281 63.5h-325v-549z" />
<glyph unicode="&#xdf;" horiz-adv-x="1282" d="M156 0v1044q0 227 123.5 349.5t338.5 122.5q201 0 318 -94.5t117 -264.5q0 -117 -71 -198.5t-194 -116.5q176 -25 289 -126.5t113 -291.5q0 -205 -109.5 -326t-298.5 -121q-213 0 -325 123l96 107q94 -88 227 -88q111 0 177.5 81t66.5 216q0 178 -120 258t-355 90v133 q172 2 254 69.5t82 180.5q0 104 -72 161.5t-199 57.5q-283 0 -282 -313v-1053h-176z" />
<glyph unicode="&#xe0;" horiz-adv-x="1132" d="M90 256q0 172 168 283.5t555 167.5v49q0 201 -205 200q-203 0 -391 -163l-92 110q219 201 502 201q360 0 360 -361v-477q0 -190 31 -266h-180q-25 78 -25 150q-178 -166 -418 -166q-141 0 -223 71.5t-82 200.5zM264 283q0 -78 48 -119t134 -41q205 0 367 158v303 q-297 -47 -423 -121t-126 -180zM274 1522h215l193 -324h-117z" />
<glyph unicode="&#xe1;" horiz-adv-x="1132" d="M90 256q0 172 168 283.5t555 167.5v49q0 201 -205 200q-203 0 -391 -163l-92 110q219 201 502 201q360 0 360 -361v-477q0 -190 31 -266h-180q-25 78 -25 150q-178 -166 -418 -166q-141 0 -223 71.5t-82 200.5zM264 283q0 -78 48 -119t134 -41q205 0 367 158v303 q-297 -47 -423 -121t-126 -180zM485 1198l193 324h215l-291 -324h-117z" />
<glyph unicode="&#xe2;" horiz-adv-x="1132" d="M90 256q0 172 168 283.5t555 167.5v49q0 201 -205 200q-203 0 -391 -163l-92 110q219 201 502 201q360 0 360 -361v-477q0 -190 31 -266h-180q-25 78 -25 150q-178 -166 -418 -166q-141 0 -223 71.5t-82 200.5zM250 1192l264 330h129l264 -330h-106l-223 192l-222 -192 h-106zM264 283q0 -78 48 -119t134 -41q205 0 367 158v303q-297 -47 -423 -121t-126 -180z" />
<glyph unicode="&#xe3;" horiz-adv-x="1132" d="M90 256q0 172 168 283.5t555 167.5v49q0 201 -205 200q-203 0 -391 -163l-92 110q219 201 502 201q360 0 360 -361v-477q0 -190 31 -266h-180q-25 78 -25 150q-178 -166 -418 -166q-141 0 -223 71.5t-82 200.5zM236 1192q0 244 188 244q66 0 164 -57.5t137 -57.5 q84 0 84 111h104q0 -244 -186 -244q-66 0 -164 57.5t-135 57.5q-45 0 -64.5 -26t-19.5 -85h-108zM264 283q0 -78 48 -119t134 -41q205 0 367 158v303q-297 -47 -423 -121t-126 -180z" />
<glyph unicode="&#xe4;" horiz-adv-x="1132" d="M90 256q0 172 168 283.5t555 167.5v49q0 201 -205 200q-203 0 -391 -163l-92 110q219 201 502 201q360 0 360 -361v-477q0 -190 31 -266h-180q-25 78 -25 150q-178 -166 -418 -166q-141 0 -223 71.5t-82 200.5zM264 283q0 -78 48 -119t134 -41q205 0 367 158v303 q-297 -47 -423 -121t-126 -180zM311 1194v192h181v-192h-181zM684 1194v192h182v-192h-182z" />
<glyph unicode="&#xe5;" horiz-adv-x="1132" d="M90 256q0 172 168 283.5t555 167.5v49q0 201 -205 200q-203 0 -391 -163l-92 110q219 201 502 201q360 0 360 -361v-477q0 -190 31 -266h-180q-25 78 -25 150q-178 -166 -418 -166q-141 0 -223 71.5t-82 200.5zM264 283q0 -78 48 -119t134 -41q205 0 367 158v303 q-297 -47 -423 -121t-126 -180zM397 1376q0 82 55.5 136.5t139.5 54.5t139 -54.5t55 -136.5q0 -84 -55 -139t-139 -55t-139.5 55t-55.5 139zM485 1376q0 -49 30 -80.5t77 -31.5t76.5 31.5t29.5 80.5q0 47 -30.5 79t-75.5 32t-76 -32t-31 -79z" />
<glyph unicode="&#xe6;" horiz-adv-x="1830" d="M88 250q0 174 168 287.5t555 169.5v49q0 201 -205 200q-203 0 -391 -163l-90 110q219 201 500 201q252 0 307 -207q53 90 147.5 148.5t204.5 58.5q197 0 324 -145.5t127 -426.5v-30h-762q4 -182 95 -281.5t230 -99.5q111 0 184.5 43t139.5 133l102 -90 q-160 -229 -440 -230q-276 0 -401 230q-219 -229 -490 -230q-141 0 -223 72t-82 201zM262 276q0 -76 48 -116.5t134 -40.5q213 0 396 190q-31 88 -31 205q0 59 2 74q-295 -49 -422 -126t-127 -186zM977 633h590q-10 150 -83 236.5t-202 86.5q-117 0 -202 -81.5t-103 -241.5z " />
<glyph unicode="&#xe7;" horiz-adv-x="1097" d="M94 541q0 276 147.5 419.5t348.5 143.5q299 0 424 -303l-150 -62q-45 115 -110.5 170.5t-167.5 55.5q-131 0 -222.5 -105.5t-91.5 -318.5q0 -197 85 -312.5t225 -115.5q102 0 169.5 54t120.5 175l146 -57q-137 -295 -422 -305l-27 -86q47 31 115 30q61 0 103 -37t42 -102 q0 -92 -71.5 -139t-182.5 -47q-152 0 -264 73l43 68q92 -61 203 -62q141 0 141 93q0 70 -82 69q-51 0 -102 -41l-61 31l45 156q-174 27 -289 171t-115 384z" />
<glyph unicode="&#xe8;" horiz-adv-x="1130" d="M94 541q0 141 44 252.5t116 177t157 99.5t173 34q203 0 326.5 -144.5t123.5 -427.5v-36h-764q4 -176 95.5 -275.5t230.5 -99.5q111 0 185.5 43t140.5 133l102 -90q-160 -229 -440 -230q-205 0 -347.5 148t-142.5 416zM250 1522h215l192 -324h-116zM274 633h592 q-10 150 -82.5 236.5t-201.5 86.5q-117 0 -203.5 -81.5t-104.5 -241.5z" />
<glyph unicode="&#xe9;" horiz-adv-x="1130" d="M94 541q0 141 44 252.5t116 177t157 99.5t173 34q203 0 326.5 -144.5t123.5 -427.5v-36h-764q4 -176 95.5 -275.5t230.5 -99.5q111 0 185.5 43t140.5 133l102 -90q-160 -229 -440 -230q-205 0 -347.5 148t-142.5 416zM274 633h592q-10 150 -82.5 236.5t-201.5 86.5 q-117 0 -203.5 -81.5t-104.5 -241.5zM489 1198l193 324h215l-291 -324h-117z" />
<glyph unicode="&#xea;" horiz-adv-x="1130" d="M94 541q0 141 44 252.5t116 177t157 99.5t173 34q203 0 326.5 -144.5t123.5 -427.5v-36h-764q4 -176 95.5 -275.5t230.5 -99.5q111 0 185.5 43t140.5 133l102 -90q-160 -229 -440 -230q-205 0 -347.5 148t-142.5 416zM250 1192l264 330h129l264 -330h-106l-223 192 l-222 -192h-106zM274 633h592q-10 150 -82.5 236.5t-201.5 86.5q-117 0 -203.5 -81.5t-104.5 -241.5z" />
<glyph unicode="&#xeb;" horiz-adv-x="1130" d="M94 541q0 141 44 252.5t116 177t157 99.5t173 34q203 0 326.5 -144.5t123.5 -427.5v-36h-764q4 -176 95.5 -275.5t230.5 -99.5q111 0 185.5 43t140.5 133l102 -90q-160 -229 -440 -230q-205 0 -347.5 148t-142.5 416zM274 633h592q-10 150 -82.5 236.5t-201.5 86.5 q-117 0 -203.5 -81.5t-104.5 -241.5zM293 1194v192h180v-192h-180zM666 1194v192h182v-192h-182z" />
<glyph unicode="&#xec;" horiz-adv-x="512" d="M-74 1522h215l193 -324h-117zM168 0v1081h176v-1081h-176z" />
<glyph unicode="&#xed;" horiz-adv-x="512" d="M168 0v1081h176v-1081h-176zM205 1198l192 324h215l-290 -324h-117z" />
<glyph unicode="&#xee;" horiz-adv-x="512" d="M-74 1192l264 330h129l265 -330h-107l-223 192l-221 -192h-107zM168 0v1081h176v-1081h-176z" />
<glyph unicode="&#xef;" horiz-adv-x="512" d="M-23 1194v192h181v-192h-181zM168 0v1081h176v-1081h-176zM350 1194v192h182v-192h-182z" />
<glyph unicode="&#xf0;" horiz-adv-x="1193" d="M96 520q0 250 134.5 390.5t338.5 140.5q96 0 187.5 -48.5t146.5 -130.5q-51 209 -172 347l-211 -82l-53 110l176 68q-55 53 -151 115l86 108q121 -70 208 -154l199 80l51 -112l-164 -68q225 -281 226 -745q0 -256 -141.5 -409t-358.5 -153q-219 0 -360.5 147.5 t-141.5 395.5zM272 522q0 -176 86 -287.5t240 -111.5q150 0 237 109.5t87 291.5q0 172 -87 279.5t-237 107.5q-152 0 -239 -104.5t-87 -284.5z" />
<glyph unicode="&#xf1;" horiz-adv-x="1204" d="M156 0v1081h178v-161q188 184 405 184q154 0 237 -85t83 -239v-780h-176v741q0 109 -48.5 160t-150.5 51q-166 0 -350 -174v-778h-178zM276 1192q0 244 189 244q66 0 164 -57.5t137 -57.5q84 0 84 111h104q0 -244 -186 -244q-66 0 -164 57.5t-135 57.5q-45 0 -64.5 -26 t-19.5 -85h-109z" />
<glyph unicode="&#xf2;" horiz-adv-x="1193" d="M94 540.5q0 266.5 145.5 415t358.5 148.5q211 0 356.5 -148.5t145.5 -415t-145.5 -415t-356.5 -148.5t-357.5 148.5t-146.5 415zM272 541q0 -182 84 -298t242 -116q152 0 238 112.5t86 301.5q0 178 -84 294.5t-240 116.5q-154 0 -240 -112.5t-86 -298.5zM274 1522h215 l193 -324h-117z" />
<glyph unicode="&#xf3;" horiz-adv-x="1193" d="M94 540.5q0 266.5 145.5 415t358.5 148.5q211 0 356.5 -148.5t145.5 -415t-145.5 -415t-356.5 -148.5t-357.5 148.5t-146.5 415zM272 541q0 -182 84 -298t242 -116q152 0 238 112.5t86 301.5q0 178 -84 294.5t-240 116.5q-154 0 -240 -112.5t-86 -298.5zM508 1198 l192 324h215l-290 -324h-117z" />
<glyph unicode="&#xf4;" horiz-adv-x="1193" d="M94 540.5q0 266.5 145.5 415t358.5 148.5q211 0 356.5 -148.5t145.5 -415t-145.5 -415t-356.5 -148.5t-357.5 148.5t-146.5 415zM268 1192l264 330h130l264 -330h-107l-223 192l-221 -192h-107zM272 541q0 -182 84 -298t242 -116q152 0 238 112.5t86 301.5 q0 178 -84 294.5t-240 116.5q-154 0 -240 -112.5t-86 -298.5z" />
<glyph unicode="&#xf5;" horiz-adv-x="1193" d="M94 540.5q0 266.5 145.5 415t358.5 148.5q211 0 356.5 -148.5t145.5 -415t-145.5 -415t-356.5 -148.5t-357.5 148.5t-146.5 415zM260 1192q0 244 189 244q66 0 164 -57.5t137 -57.5q84 0 84 111h104q0 -244 -186 -244q-66 0 -164.5 57.5t-134.5 57.5q-45 0 -64.5 -26 t-19.5 -85h-109zM272 541q0 -182 84 -298t242 -116q152 0 238 112.5t86 301.5q0 178 -84 294.5t-240 116.5q-154 0 -240 -112.5t-86 -298.5z" />
<glyph unicode="&#xf6;" horiz-adv-x="1193" d="M94 540.5q0 266.5 145.5 415t358.5 148.5q211 0 356.5 -148.5t145.5 -415t-145.5 -415t-356.5 -148.5t-357.5 148.5t-146.5 415zM272 541q0 -182 84 -298t242 -116q152 0 238 112.5t86 301.5q0 178 -84 294.5t-240 116.5q-154 0 -240 -112.5t-86 -298.5zM317 1194v192 h181v-192h-181zM690 1194v192h182v-192h-182z" />
<glyph unicode="&#xf7;" horiz-adv-x="1306" d="M135 608v148h1039v-148h-1039zM553 217v189h192v-189h-192zM553 956v189h192v-189h-192z" />
<glyph unicode="&#xf8;" horiz-adv-x="1193" d="M94 541q0 266 145.5 414.5t358.5 148.5q164 0 291 -90l106 135l88 -74l-110 -139q127 -154 127 -395q0 -266 -145.5 -415t-356.5 -149q-164 0 -289 91l-110 -140l-86 74l112 141q-131 154 -131 398zM268 541q0 -158 64 -271l463 617q-82 72 -197 71q-154 0 -242 -115.5 t-88 -301.5zM399 188q82 -70 199 -69q154 0 241 116.5t87 305.5q0 156 -62 262z" />
<glyph unicode="&#xf9;" horiz-adv-x="1204" d="M145 301v780h177v-743q0 -109 48 -160t150 -51q166 0 350 174v780h179v-1081h-179v162q-186 -182 -405 -182q-154 0 -237 83.5t-83 237.5zM283 1522h215l192 -324h-117z" />
<glyph unicode="&#xfa;" horiz-adv-x="1204" d="M145 301v780h177v-743q0 -109 48 -160t150 -51q166 0 350 174v780h179v-1081h-179v162q-186 -182 -405 -182q-154 0 -237 83.5t-83 237.5zM506 1198l192 324h215l-290 -324h-117z" />
<glyph unicode="&#xfb;" horiz-adv-x="1204" d="M145 301v780h177v-743q0 -109 48 -160t150 -51q166 0 350 174v780h179v-1081h-179v162q-186 -182 -405 -182q-154 0 -237 83.5t-83 237.5zM268 1192l264 330h130l264 -330h-107l-223 192l-221 -192h-107z" />
<glyph unicode="&#xfc;" horiz-adv-x="1204" d="M145 301v780h177v-743q0 -109 48 -160t150 -51q166 0 350 174v780h179v-1081h-179v162q-186 -182 -405 -182q-154 0 -237 83.5t-83 237.5zM322 1194v192h180v-192h-180zM694 1194v192h183v-192h-183z" />
<glyph unicode="&#xfd;" horiz-adv-x="1091" d="M14 -389l41 141q70 -18 160 -18q82 0 128 35.5t79 117.5l41 107l-418 1087h186l318 -874h4l317 874h179l-463 -1204q-59 -154 -139 -223.5t-230 -69.5q-115 0 -203 27zM377 1198l192 324h215l-290 -324h-117z" />
<glyph unicode="&#xfe;" horiz-adv-x="1226" d="M156 -410v1926h176v-584q156 172 356 172q195 0 317.5 -144.5t122.5 -417t-125.5 -415.5t-332.5 -143q-188 0 -338 155v-549h-176zM332 291q145 -164 313 -164q145 0 226 102.5t81 311.5q0 201 -84 306t-221 105q-164 0 -315 -166v-495z" />
<glyph unicode="&#xff;" horiz-adv-x="1091" d="M14 -389l41 141q70 -18 160 -18q82 0 128 35.5t79 117.5l41 107l-418 1087h186l318 -874h4l317 874h179l-463 -1204q-59 -154 -139 -223.5t-230 -69.5q-115 0 -203 27zM272 1194v192h181v-192h-181zM645 1194v192h182v-192h-182z" />
<glyph unicode="&#x152;" horiz-adv-x="2295" d="M113 757.5q0 356.5 186 571.5t469 215q160 0 284 -76.5t197 -212.5v261h916v-166h-750v-473h557v-162h-557v-551h791v-164h-957v264q-74 -135 -197.5 -214t-283.5 -79q-283 0 -469 215t-186 571.5zM293 758q0 -291 131 -458t344 -167q209 0 339 167t130 458t-129 456.5 t-340 165.5q-213 0 -344 -165.5t-131 -456.5z" />
<glyph unicode="&#x153;" horiz-adv-x="1939" d="M94 540.5q0 266.5 144.5 415t355.5 148.5q137 0 244.5 -71.5t162.5 -194.5q49 117 158 191.5t236 74.5q197 0 323.5 -145.5t126.5 -426.5v-30h-760q2 -182 92.5 -281.5t231.5 -99.5q111 0 183.5 43t138.5 133l104 -90q-160 -229 -440 -230q-129 0 -240 72t-158 189 q-57 -119 -162.5 -190t-240.5 -71q-211 0 -355.5 148.5t-144.5 415zM272 541q0 -182 82 -299t240 -117q152 0 236.5 112.5t84.5 303.5q0 178 -82.5 294.5t-238.5 116.5q-152 0 -237 -112.5t-85 -298.5zM1087 633h590q-10 150 -82.5 236.5t-201.5 86.5q-117 0 -202.5 -81.5 t-103.5 -241.5z" />
<glyph unicode="&#x178;" horiz-adv-x="1292" d="M45 1516h193l411 -699l410 699h188l-512 -852v-664h-180v664zM369 1606v192h180v-192h-180zM741 1606v192h183v-192h-183z" />
<glyph unicode="&#x2c6;" horiz-adv-x="1060" d="M201 1192l264 330h129l264 -330h-106l-224 192l-221 -192h-106z" />
<glyph unicode="&#x2dc;" horiz-adv-x="1040" d="M180 1192q0 244 189 244q66 0 164 -57.5t137 -57.5q84 0 84 111h104q0 -244 -186 -244q-66 0 -164 57.5t-135 57.5q-45 0 -64.5 -26t-19.5 -85h-109z" />
<glyph unicode="&#x3bc;" horiz-adv-x="1214" d="M156 -410v1491h176v-743q0 -213 200 -213q162 0 351 174v782h176v-1081h-176v174q-182 -178 -363 -188q-131 -4 -188 59v-455h-176z" />
<glyph unicode="&#x2000;" horiz-adv-x="974" />
<glyph unicode="&#x2001;" horiz-adv-x="1949" />
<glyph unicode="&#x2002;" horiz-adv-x="974" />
<glyph unicode="&#x2003;" horiz-adv-x="1949" />
<glyph unicode="&#x2004;" horiz-adv-x="649" />
<glyph unicode="&#x2005;" horiz-adv-x="487" />
<glyph unicode="&#x2006;" horiz-adv-x="323" />
<glyph unicode="&#x2007;" horiz-adv-x="323" />
<glyph unicode="&#x2008;" horiz-adv-x="243" />
<glyph unicode="&#x2009;" horiz-adv-x="389" />
<glyph unicode="&#x200a;" horiz-adv-x="106" />
<glyph unicode="&#x2010;" horiz-adv-x="731" d="M127 573v140h477v-140h-477z" />
<glyph unicode="&#x2011;" horiz-adv-x="731" d="M127 573v140h477v-140h-477z" />
<glyph unicode="&#x2012;" horiz-adv-x="731" d="M127 573v140h477v-140h-477z" />
<glyph unicode="&#x2013;" horiz-adv-x="1320" d="M133 563v156h1055v-156h-1055z" />
<glyph unicode="&#x2014;" horiz-adv-x="1900" d="M133 563v156h1634v-156h-1634z" />
<glyph unicode="&#x2018;" horiz-adv-x="555" d="M174 1085v199l107 232h81l-57 -216h74v-215h-205z" />
<glyph unicode="&#x2019;" horiz-adv-x="555" d="M174 1300v216h205v-199l-105 -232h-81l55 215h-74z" />
<glyph unicode="&#x201a;" horiz-adv-x="555" d="M174 0v215h205v-197l-105 -233h-81l55 215h-74z" />
<glyph unicode="&#x201c;" horiz-adv-x="952" d="M174 1085v199l107 232h81l-57 -216h74v-215h-205zM573 1085v199l107 232h80l-55 -216h73v-215h-205z" />
<glyph unicode="&#x201d;" horiz-adv-x="952" d="M174 1300v216h205v-199l-105 -232h-81l55 215h-74zM573 1300v216h205v-199l-106 -232h-80l55 215h-74z" />
<glyph unicode="&#x201e;" horiz-adv-x="952" d="M174 0v215h205v-197l-105 -233h-81l55 215h-74zM573 0v215h205v-197l-106 -233h-80l55 215h-74z" />
<glyph unicode="&#x2022;" horiz-adv-x="948" d="M225 717q0 109 70 179.5t178.5 70.5t179 -71t70.5 -179.5t-70.5 -178t-179 -69.5t-178.5 71t-70 177z" />
<glyph unicode="&#x2026;" horiz-adv-x="1662" d="M172 0v215h211v-215h-211zM725 0v215h211v-215h-211zM1280 0v215h211v-215h-211z" />
<glyph unicode="&#x202f;" horiz-adv-x="389" />
<glyph unicode="&#x2039;" horiz-adv-x="681" d="M84 543l309 538h178l-301 -538l301 -543h-178z" />
<glyph unicode="&#x203a;" horiz-adv-x="681" d="M109 0l303 543l-303 538h178l311 -538l-311 -543h-178z" />
<glyph unicode="&#x205f;" horiz-adv-x="487" />
<glyph unicode="&#x20ac;" horiz-adv-x="1476" d="M43 530v136h240q-2 33 -2 98q0 53 2 78h-240v133h254q43 281 196.5 425t364.5 144q203 0 320.5 -111.5t173.5 -316.5l-162 -51q-49 170 -119 245.5t-213 75.5q-147 0 -249.5 -103t-137.5 -308h438v-133h-452q-2 -23 -2 -72q0 -18 1 -53t1 -51h452v-136h-436 q68 -403 389 -403q141 0 222 83t126 259l162 -47q-123 -451 -512 -451q-217 0 -366.5 141.5t-194.5 417.5h-256z" />
<glyph unicode="&#x2122;" horiz-adv-x="1812" d="M61 1403v113h658v-113h-264v-754h-131v754h-263zM864 649v867h172l242 -697l244 697h172v-867h-129v660l-236 -660h-108l-236 658v-658h-121z" />
<glyph unicode="&#xe000;" horiz-adv-x="1080" d="M0 1080h1080v-1080h-1080v1080z" />
<glyph unicode="&#xfb01;" horiz-adv-x="1210" d="M51 936v145h189v146q0 139 77.5 216t233.5 77q18 0 54 -3.5t44 -3.5v-143q-18 4 -71 4q-162 0 -162 -151v-142h225v-145h-225v-936h-176v936h-189zM850 1307v178h180v-178h-180zM852 0v1081h176v-1081h-176z" />
<glyph unicode="&#xfb02;" horiz-adv-x="1206" d="M51 936v145h189v146q0 139 77.5 216t233.5 77q18 0 54 -3.5t44 -3.5v-143q-18 4 -71 4q-162 0 -162 -151v-142h225v-145h-225v-936h-176v936h-189zM852 0v1516h176v-1516h-176z" />
<glyph unicode="&#xfb03;" horiz-adv-x="1921" d="M1573 1313v172h184v-172h-184zM1577 0v1081h176v-1081h-176zM756 936v145h189v146q0 293 325 293q16 0 55 -3.5t46 -3.5v-143q-25 6 -76 6q-174 0 -174 -151v-144h237v-145h-237v-936h-176v936h-189zM51 936v145h189v146q0 293 325 293q16 0 55 -3.5t46 -3.5v-143 q-25 6 -76 6q-174 0 -174 -151v-144h237v-145h-237v-936h-176v936h-189z" />
<glyph unicode="&#xfb04;" horiz-adv-x="1921" d="M1577 0v1516h176v-1516h-176zM756 936v145h189v146q0 293 325 293q16 0 55 -3.5t46 -3.5v-143q-25 6 -76 6q-174 0 -174 -151v-144h237v-145h-237v-936h-176v936h-189zM51 936v145h189v146q0 293 325 293q16 0 55 -3.5t46 -3.5v-143q-25 6 -76 6q-174 0 -174 -151v-144 h237v-145h-237v-936h-176v936h-189z" />
</font>
</defs>
</svg>
