<?xml version="1.0" standalone="no"?>
<!DOCTYPE svg PUBLIC "-//W3C//DTD SVG 1.1//EN" "http://www.w3.org/Graphics/SVG/1.1/DTD/svg11.dtd" >
<svg xmlns="http://www.w3.org/2000/svg">
<metadata>
This is a custom SVG webfont generated by Font Squirrel.
Copyright   : Copyright c 199295 ElseWare  All rights reserved
</metadata>
<defs>
<font id="GillSansLightRegular" horiz-adv-x="0" >
<font-face units-per-em="2048" ascent="1638" descent="-410" />
<missing-glyph horiz-adv-x="569" />
<glyph unicode=" "  horiz-adv-x="569" />
<glyph unicode="&#x09;" horiz-adv-x="569" />
<glyph unicode="&#xa0;" horiz-adv-x="569" />
<glyph unicode="!" horiz-adv-x="362" d="M115 0v196h134v-196h-134zM116 1414h133l-33 -1009h-66z" />
<glyph unicode="&#x22;" horiz-adv-x="569" d="M76 1162v235h135v-235l-20 -235h-94zM359 1162v235h135v-235l-20 -235h-94z" />
<glyph unicode="#" horiz-adv-x="1352" d="M158 437v93h1036v-93h-1036zM158 908v93h1036v-93h-1036zM234 -17l292 1414h95l-292 -1414h-95zM730 -17l292 1414h95l-292 -1414h-95z" />
<glyph unicode="$" horiz-adv-x="1067" d="M72 148v109q114 -92 225 -134.5t234 -42.5q162 0 257 70.5t95 190.5q0 103 -89 174q-89 70 -275 114q-206 49 -322 152q-116 102 -116 234q0 158 114 250.5t309 92.5q133 0 232 -32.5t191 -105.5v-109q-108 79 -208.5 114.5t-214.5 35.5q-145 0 -230 -64.5t-85 -173.5 q0 -105 84 -172q83 -67 272 -112q232 -56 339 -152q107 -95 107 -247q0 -164 -124 -260.5t-336 -96.5q-133 0 -242 39.5t-217 125.5zM477 -151v1643h102v-1643h-102z" />
<glyph unicode="%" horiz-adv-x="1430" d="M39 1085q0 143 92.5 234.5t237.5 91.5t237.5 -91.5t92.5 -234.5t-92.5 -233.5t-237.5 -90.5t-237.5 90.5t-92.5 233.5zM105 -27l1119 1438h103l-1119 -1438h-103zM130 1087q0 -100 70 -170.5t169 -70.5t169 70.5t70 170.5q0 101 -70 172t-169 71t-169 -71t-70 -172z M731 297q0 143 92.5 234.5t237.5 91.5t237.5 -91.5t92.5 -234.5t-92.5 -233.5t-237.5 -90.5t-237.5 90.5t-92.5 233.5zM822 299q0 -100 70 -170.5t169 -70.5t169 70.5t70 170.5q0 101 -70 172t-169 71t-169 -71t-70 -172z" />
<glyph unicode="&#x26;" horiz-adv-x="1260" d="M53 326q0 136 110 255q94 102 240 160q-92 95 -133 166q-50 85 -50 165q0 123 95.5 211.5t227.5 88.5t227 -81.5t95 -194.5q0 -123 -84 -222q-75 -87 -215 -161l323 -338l41 75q69 127 110 254h56h56q-42 -129 -124 -279q-36 -67 -72 -120l291 -305h-69h-70l-212 222 l-23 -27q-95 -104 -211.5 -158t-246.5 -54q-167 0 -264.5 92.5t-97.5 250.5zM170 331q0 -113 74 -178t202 -65q82 0 172 45.5t186 135.5l24 24l-357 374q-124 -48 -204 -127q-97 -96 -97 -209zM327 1076q0 -60 46 -135q41 -67 123 -156q96 37 169 104q93 87 93 181 q0 83 -63 141.5t-152 58.5q-90 0 -153 -57q-63 -56 -63 -137z" />
<glyph unicode="'" horiz-adv-x="455" d="M160 1162v235h135v-235l-20 -235h-94z" />
<glyph unicode="(" horiz-adv-x="682" d="M164 470q0 266 114 525.5t300 418.5h90q-184 -157 -295.5 -416.5t-111.5 -527.5q0 -269 112 -529t295 -416h-90q-187 159 -301 419q-113 260 -113 526z" />
<glyph unicode=")" horiz-adv-x="682" d="M14 -475q184 157 295.5 416.5t111.5 527.5q0 269 -112 529t-295 416h90q187 -159 301 -419q113 -260 113 -526t-114 -525.5t-300 -418.5h-90z" />
<glyph unicode="*" horiz-adv-x="961" d="M66 934v99l375 -41q3 0 5.5 6t0.5 8l-294 235l70 70l234 -293q2 -2 8 0.5t6 5.5l-40 373h99l-41 -375q0 -3 6 -5.5t8 -0.5l235 294l70 -70l-293 -234q-2 -2 0.5 -8t5.5 -6l373 40v-99l-375 41q-3 0 -5.5 -6t-0.5 -8l294 -235l-70 -70l-234 293q-2 2 -8 -0.5t-6 -5.5 l40 -373h-99l41 375q0 3 -6 5.5t-8 0.5l-235 -294l-70 70l293 234q2 2 -0.5 8t-5.5 6z" />
<glyph unicode="+" horiz-adv-x="1352" d="M139 675v88h492v492h88v-492h492v-88h-492v-492h-88v492h-492z" />
<glyph unicode="," horiz-adv-x="362" d="M115 0v100v99h61h72v-176q0 -73 -37 -146.5t-96 -116.5v66q29 35 38 80q6 32 8 94h-6h-40z" />
<glyph unicode="-" horiz-adv-x="641" d="M78 411v97h484v-97h-484z" />
<glyph unicode="." horiz-adv-x="362" d="M115 0v196h134v-196h-134z" />
<glyph unicode="/" horiz-adv-x="575" d="M6 -21l449 1446h96l-449 -1446h-96z" />
<glyph unicode="0" horiz-adv-x="1024" d="M66 698q0 317 125 518.5t321 201.5q197 0 321.5 -201.5t124.5 -518.5q0 -316 -124.5 -517.5t-321.5 -201.5q-196 0 -321 201.5t-125 517.5zM173 698q0 -258 99.5 -440t239.5 -182q141 0 240 182t99 440q0 259 -99 441t-240 182q-140 0 -239.5 -182t-99.5 -441z" />
<glyph unicode="1" horiz-adv-x="1024" d="M459 0v1397h51h52v-1397h-51h-52z" />
<glyph unicode="2" horiz-adv-x="1024" d="M76 0q298 271 473 546q174 275 174 473q0 125 -91 213.5t-220 88.5q-80 0 -157.5 -39.5t-152.5 -119.5v123q83 69 162 101t165 32q176 0 289 -112q112 -111 112 -286q0 -213 -186 -508q-131 -207 -330 -415h649v-97h-887z" />
<glyph unicode="3" horiz-adv-x="1024" d="M139 51v105q87 -41 158.5 -58t157.5 -17q132 0 224.5 88.5t92.5 213.5q0 126 -92.5 214.5t-224.5 88.5h-43v96h43q122 0 209 79q86 78 86 190t-86.5 191t-208.5 79q-83 0 -152.5 -21.5t-141.5 -70.5v103q72 46 137 66t141 20q184 0 301 -97.5t117 -250.5t-98 -250 q-60 -59 -139 -83q90 -22 156 -84q103 -97 103 -250q0 -187 -118 -305.5t-304 -118.5q-90 0 -162 16.5t-156 55.5z" />
<glyph unicode="4" horiz-adv-x="1024" d="M29 531v20v21l711 825h19h19v-769h187v-97h-187v-531h-103v531h-646zM180 628h495v577z" />
<glyph unicode="5" horiz-adv-x="1024" d="M84 78v110q86 -57 166.5 -82t174.5 -25q149 0 245.5 98t96.5 249q0 155 -102.5 251.5t-266.5 96.5q-53 0 -108 -8.5t-88 -22.5v652h592v-97h-500v-444q53 11 105 9q218 0 346 -113q127 -112 127 -304q0 -206 -128 -337.5t-330 -131.5q-93 0 -170 23t-160 76z" />
<glyph unicode="6" horiz-adv-x="1024" d="M125 489q0 240 153 487q152 246 423 442l65 -71q-267 -194 -401 -416q-79 -130 -111 -273l18 13q125 90 264 90q181 0 296.5 -109.5t115.5 -282.5q0 -172 -115.5 -281t-296.5 -109q-193 0 -302 135t-109 375zM232 461q0 -181 85.5 -283t236.5 -102q119 0 203 85.5 t84 207.5t-89 208.5t-216 86.5q-118 0 -222 -68q-47 -31 -80 -68z" />
<glyph unicode="7" horiz-adv-x="1024" d="M59 1300v97h907h7h7l-645 -1440l-94 43l583 1300h-765z" />
<glyph unicode="8" horiz-adv-x="1024" d="M115 369q0 173 112 283q49 48 111 76q-54 25 -97 67q-106 101 -106 260q0 149 111.5 256t266.5 107t266.5 -107t111.5 -256q0 -159 -106 -261q-41 -39 -93 -64q64 -28 112 -75q107 -106 107 -286q0 -172 -111.5 -281t-286.5 -109t-286.5 109t-111.5 281zM222 377 q0 -125 85.5 -213t206.5 -88q122 0 207.5 88t85.5 213q0 134 -82 218q-81 84 -211 84q-121 0 -206.5 -88.5t-85.5 -213.5zM242 1047q0 -113 80 -193q79 -79 191 -79t191.5 79.5t79.5 192.5q0 114 -79.5 194t-191.5 80t-191.5 -80t-79.5 -194z" />
<glyph unicode="9" horiz-adv-x="1024" d="M66 1027q0 172 115.5 281t296.5 109q193 0 302 -135t109 -375t-153 -487q-152 -246 -423 -442l-65 71q267 194 401 416q79 130 111 273l-18 -13q-125 -90 -264 -90q-181 0 -296.5 109.5t-115.5 282.5zM173 1027q0 -122 89 -208.5t216 -86.5q118 0 222 68q47 31 80 68 l2 67q0 181 -85.5 283t-236.5 102q-119 0 -203 -85.5t-84 -207.5z" />
<glyph unicode=":" horiz-adv-x="362" d="M115 0v196h134v-196h-134zM115 724v196h134v-196h-134z" />
<glyph unicode=";" horiz-adv-x="362" d="M115 0v100v99h61h72v-176q0 -73 -37 -146.5t-96 -116.5v66q29 35 38 80q6 32 8 94h-6h-40zM116 724v196h134v-196h-134z" />
<glyph unicode="&#x3c;" horiz-adv-x="1352" d="M139 675v44v44l1073 452v-96l-953 -399l953 -401v-96z" />
<glyph unicode="=" horiz-adv-x="1352" d="M139 428v89h1072v-89h-1072zM139 922v89h1072v-89h-1072z" />
<glyph unicode="&#x3e;" horiz-adv-x="1352" d="M139 223v96l953 401l-953 399v96l1073 -452v-44v-44z" />
<glyph unicode="?" horiz-adv-x="575" d="M51 1229l42 147q40 21 71.5 29.5t66.5 8.5q108 0 185.5 -83t77.5 -199q0 -87 -28 -164t-93 -170q-115 -164 -136 -268t45 -181l-46 -28q-94 110 -83.5 218.5t136.5 312.5q53 87 75.5 151t22.5 129q0 77 -46 131q-45 54 -110 54q-46 0 -91 -22t-89 -66zM192 0v196h134 v-196h-134z" />
<glyph unicode="@" horiz-adv-x="1638" d="M-4 549q0 402 231.5 638t624.5 236q364 0 577 -212.5t213 -574.5q0 -261 -89.5 -414t-241.5 -153q-101 0 -161 126q-23 52 -39 114q-28 -59 -71 -108q-116 -132 -291 -132q-171 0 -289 133.5t-118 326.5q0 194 118.5 327.5t290.5 133.5q173 0 292 -134q27 -30 48 -64v213 h107v-470q0 -173 38 -274t103 -101q95 0 151 128.5t56 347.5q0 324 -188 514.5t-510 190.5q-347 0 -551.5 -214t-204.5 -578t205.5 -578t556.5 -214q105 0 200 10t127 25v-82q-32 -15 -118 -25t-178 -10q-409 0 -649 236t-240 638zM452 529q0 -159 92.5 -268.5t226.5 -109.5 q144 0 232 104t88 275q0 166 -89.5 272t-230.5 106q-134 0 -226.5 -110t-92.5 -269z" />
<glyph unicode="A" horiz-adv-x="1366" d="M8 0l645 1411h30h30l645 -1411h-59h-60l-220 484h-682l-217 -484h-56h-56zM379 574h600l-301 662z" />
<glyph unicode="B" horiz-adv-x="1087" d="M164 0v1397h54h268q207 0 324 -93.5t117 -258.5t-117 -258q-47 -37 -109 -59q123 -22 206 -84q135 -98 135 -273q0 -174 -126.5 -272.5t-351.5 -98.5h-346h-54zM272 97h292q171 0 265 74t94 207q0 134 -102.5 208.5t-288.5 74.5h-260v-564zM272 748h214q153 0 237.5 72 t84.5 203q0 132 -84.5 204.5t-237.5 72.5h-214v-552z" />
<glyph unicode="C" horiz-adv-x="1386" d="M100 698q0 301 208.5 508.5t509.5 207.5q145 0 264 -29.5t257 -99.5v-110q-135 76 -253 109t-258 33q-252 0 -430.5 -181t-178.5 -438q0 -256 178.5 -437t430.5 -181q140 0 258 33t253 109v-110q-138 -70 -257 -99.5t-264 -29.5q-294 0 -506 211t-212 504z" />
<glyph unicode="D" horiz-adv-x="1516" d="M162 0v1397h54h463q331 0 532.5 -192t201.5 -507q0 -314 -207 -506t-547 -192h-443h-54zM270 97h389q289 0 462 164t173 437q0 274 -167.5 438t-447.5 164h-409v-1203z" />
<glyph unicode="E" horiz-adv-x="1004" d="M164 0v1397h754v-45v-45h-646v-560h631v-45v-45h-631v-567h670v-45v-45h-778z" />
<glyph unicode="F" horiz-adv-x="897" d="M160 0v1397h719v-45v-45h-611v-560h539v-45v-45h-539v-657h-54h-54z" />
<glyph unicode="G" horiz-adv-x="1473" d="M102 698q0 301 210 508.5t513 207.5q142 0 262.5 -29t270.5 -100v-110q-134 76 -254 109t-265 33q-262 0 -440 -178t-178 -441t178 -440.5t440 -177.5q231 1 411 96v433h-293v90h401v-584q-219 -132 -504 -132q-315 0 -533.5 207.5t-218.5 507.5z" />
<glyph unicode="H" horiz-adv-x="1473" d="M162 0v1397h54h54v-650h933v650h54h54v-1397h-54h-54v657h-933v-657h-54h-54z" />
<glyph unicode="I" horiz-adv-x="426" d="M160 0v1397h54h54v-1397h-54h-54z" />
<glyph unicode="J" horiz-adv-x="426" d="M-92 -307q22 -5 49 -4q109 0 160 69t51 217v1422h54h54v-1422q0 -184 -78 -283.5t-223 -99.5l-50 2z" />
<glyph unicode="K" horiz-adv-x="1087" d="M156 0v1397h54h54v-701l686 701h67h67l-687 -693l736 -704h-74h-74l-721 702v-702h-54h-54z" />
<glyph unicode="L" horiz-adv-x="961" d="M162 0v1397h54h54v-1307h691v-45v-45h-799z" />
<glyph unicode="M" horiz-adv-x="1599" d="M158 0v1397h52h53l543 -665l529 665h52h53v-1397h-54h-54v1250l-529 -664h-4h-4l-529 647v-1233h-54h-54z" />
<glyph unicode="N" horiz-adv-x="1579" d="M160 0v1397h46h46l1059 -1203v1203h54h54v-1411h-33h-34l-1084 1230v-1216h-54h-54z" />
<glyph unicode="O" horiz-adv-x="1686" d="M104 698q0 294 218 505t521 211q304 0 522 -211t218 -505q0 -293 -218 -504t-522 -211q-303 0 -521 211t-218 504zM223 698q0 -256 181.5 -437t438.5 -181q258 0 439.5 181t181.5 437q0 257 -181.5 438t-439.5 181q-257 0 -438.5 -181t-181.5 -438z" />
<glyph unicode="P" horiz-adv-x="1044" d="M160 0v1397h54h299q229 0 358.5 -101t129.5 -280q0 -178 -129.5 -278.5t-358.5 -100.5h-245v-637h-54h-54zM268 734h276q161 0 249.5 74t88.5 208q0 135 -88.5 209.5t-249.5 74.5h-276v-566z" />
<glyph unicode="Q" horiz-adv-x="1686" d="M104 698q0 294 218 505t521 211q304 0 522 -211t218 -505q0 -293 -218 -504q-179 -174 -417 -204q108 -97 245 -147q99 -36 184 -36q88 0 161 39l-114 -114q-36 -5 -74 -5q-155 0 -328 87q-142 70 -239 172q-266 19 -461 208q-218 211 -218 504zM223 698 q0 -256 181.5 -437t438.5 -181q258 0 439.5 181t181.5 437q0 257 -181.5 438t-439.5 181q-257 0 -438.5 -181t-181.5 -438z" />
<glyph unicode="R" horiz-adv-x="1174" d="M162 0v1397h54h291q224 0 350.5 -96t126.5 -267q0 -170 -127 -266q-58 -44 -139 -68q31 -21 74 -67q82 -88 163 -215l265 -418h-62h-62l-265 418q-98 155 -162.5 202.5t-177.5 47.5h-221v-668h-54h-54zM270 755h238q170 0 263.5 71.5t93.5 200.5q0 130 -93.5 201.5 t-263.5 71.5h-238v-545z" />
<glyph unicode="S" horiz-adv-x="961" d="M94 1057q0 150 122.5 253.5t300.5 103.5q76 0 147 -20t159 -67v-117q-98 56 -171 81.5t-135 25.5q-130 0 -219.5 -80.5t-89.5 -196.5q0 -91 68 -154q67 -62 229 -120q210 -76 291 -166q81 -89 81 -246q0 -156 -114.5 -263.5t-280.5 -107.5q-100 0 -186.5 29t-178.5 93 v123q100 -75 185.5 -111.5t163.5 -36.5q125 0 211 84.5t86 207.5q0 95 -71 164q-70 68 -225 124q-218 78 -296 161q-77 82 -77 236z" />
<glyph unicode="T" horiz-adv-x="1174" d="M8 1307v45v45h1157v-45v-45h-525v-1307h-54h-54v1307h-524z" />
<glyph unicode="U" horiz-adv-x="1430" d="M131 627v770h54h54v-776q0 -251 128 -395t349 -144q222 0 349 144t127 395v776h54h54v-770q0 -299 -156 -471.5t-428 -172.5t-428.5 172.5t-156.5 471.5z" />
<glyph unicode="V" horiz-adv-x="1217" d="M6 1397h55h55l492 -1187l492 1187h55h55l-590 -1411h-12h-12z" />
<glyph unicode="W" horiz-adv-x="2111" d="M-2 1397h58h58l446 -1168l466 1182h33h34l468 -1182l444 1168h54h55l-544 -1411h-12h-12l-491 1227l-489 -1227h-12h-12z" />
<glyph unicode="X" horiz-adv-x="1409" d="M0 0l639 702l-629 695h68h69l560 -620l564 620h64h64l-629 -691l639 -706h-68h-69l-571 632l-573 -632h-64h-64z" />
<glyph unicode="Y" horiz-adv-x="1194" d="M0 1397h68h69l462 -561l467 561h64h64l-543 -639v-758h-54h-54v751z" />
<glyph unicode="Z" horiz-adv-x="1300" d="M18 48l1083 1259h-1026v45v45h1175l7 -24l7 -24l-1082 -1259h1075v-45v-45h-1225l-7 24z" />
<glyph unicode="[" horiz-adv-x="618" d="M141 -475v1889h463v-89h-366v-1711h366v-89h-463z" />
<glyph unicode="\" horiz-adv-x="575" d="M25 1425h95l449 -1446h-95z" />
<glyph unicode="]" horiz-adv-x="618" d="M14 -386h366v1711h-366v89h463v-1889h-463v89z" />
<glyph unicode="^" horiz-adv-x="1352" d="M227 690l425 724h23h23l426 -724h-103l-347 589l-344 -589h-103z" />
<glyph unicode="_" horiz-adv-x="1024" d="M-12 -370h1048v-105h-1048v105z" />
<glyph unicode="`" horiz-adv-x="682" d="M-8 1376h161l222 -327h-64z" />
<glyph unicode="a" horiz-adv-x="874" d="M74 209q0 156 153 251q147 92 381 95v116q0 92 -50 135t-157 43q-76 0 -143.5 -28t-133.5 -86v105q73 53 145 77t158 24q129 0 204 -63.5t75 -171.5v-586q0 -23 7.5 -33.5t23.5 -10.5q12 0 48.5 23t75.5 55l1 -76q-45 -39 -101 -67.5t-89 -28.5q-31 0 -47.5 28.5 t-16.5 81.5v2q-43 -36 -101 -66q-98 -49 -191 -49q-102 0 -172 66.5t-70 163.5zM168 214q0 -63 53 -105.5t131 -42.5q77 0 147 32.5t109 86.5v292q-177 -4 -306 -77q-134 -77 -134 -186z" />
<glyph unicode="b" horiz-adv-x="1044" d="M127 56v1341h49h49v-599q27 26 55 47q130 96 279 96q184 0 296 -132.5t112 -349.5q0 -206 -146 -343t-366 -137q-80 0 -170 21t-158 56zM225 120l42 -17q79 -27 179 -27q179 0 297.5 110.5t118.5 277.5q0 170 -86 280t-219 110q-132 0 -236 -75q-56 -40 -96 -95v-564z " />
<glyph unicode="c" horiz-adv-x="854" d="M86 459q0 212 128.5 347t330.5 135q57 0 107.5 -11t119.5 -38v-100q-74 28 -127 39t-114 11q-143 0 -243.5 -112t-100.5 -271q0 -177 98 -279t269 -102q62 0 115 11t124 39v-100q-72 -27 -127 -38t-121 -11q-202 0 -330.5 134.5t-128.5 345.5z" />
<glyph unicode="d" horiz-adv-x="1044" d="M84 459q0 207 137.5 344.5t345.5 137.5q133 0 237 -69l18 -12v537h49h49v-1397h-49h-49v65l-21 -14q-107 -72 -234 -72q-217 0 -350 132t-133 348zM189 459q0 -159 109.5 -271t264.5 -112q113 0 197 48q37 21 62 49v570q-25 26 -65 49q-89 52 -193 52q-169 0 -272 -106 t-103 -279z" />
<glyph unicode="e" horiz-adv-x="981" d="M82 459q0 212 116 347t298 135q199 0 307 -126q102 -116 107 -330h-727v-21q0 -158 112 -269.5t271 -111.5q96 0 179 31t166 98v-102q-82 -68 -166.5 -99.5t-182.5 -31.5q-211 0 -345.5 134.5t-134.5 345.5zM192 563h609q-16 109 -75 180q-84 103 -230 103 q-130 0 -222 -112q-60 -74 -82 -171z" />
<glyph unicode="f" horiz-adv-x="492" d="M23 839v81h171v141q0 163 85.5 258t232.5 95q100 0 168 -44v-96q-64 41 -159 41q-118 0 -173.5 -61.5t-55.5 -192.5v-141h190v-81h-190v-839h-49h-49v839h-171z" />
<glyph unicode="g" horiz-adv-x="874" d="M37 -221q0 80 71 139.5t173 65.5l-46 25q-80 52 -80 121q0 55 55 99t134 53q-91 18 -156 82q-90 90 -90 232q0 143 94.5 233.5t242.5 90.5h9q30 0 58 -6h352v-76h-198q11 -5 18 -14q99 -95 99 -228q0 -142 -99 -232q-72 -66 -174 -84q-126 -24 -189 -60q-62 -35 -62 -82 q0 -48 64 -72.5t192 -26.5q185 -3 267 -60.5t82 -184.5q0 -125 -113.5 -195t-315.5 -70q-182 0 -285 66t-103 184zM128 -215q0 -80 80 -125t221 -45q157 0 245 46.5t88 128.5q0 75 -68 118t-189 45l-61 1q-14 0 -37 -2t-42 -5q-115 -20 -171 -54q-66 -40 -66 -108zM188 596 q0 -102 72.5 -174t174.5 -72q103 0 175.5 72t72.5 174q0 103 -73 176q-72 72 -175 72q-102 0 -174.5 -72.5t-72.5 -175.5z" />
<glyph unicode="h" horiz-adv-x="1004" d="M127 0v1397h49h49v-633l24 31q114 146 283 146q154 0 248 -103.5t94 -272.5v-565h-49h-49v559q0 128 -71 206.5t-188 78.5q-130 0 -236 -120q-30 -34 -56 -76v-648h-49h-49z" />
<glyph unicode="i" horiz-adv-x="385" d="M143 0v920h49h49v-920h-49h-49zM143 1229v168h98v-168h-98z" />
<glyph unicode="j" horiz-adv-x="385" d="M-57 -390q94 8 142 63q55 63 55 198v1049h49h49v-1049q0 -178 -79 -264q-66 -73 -197 -83zM140 1229v168h98v-168h-98z" />
<glyph unicode="k" horiz-adv-x="874" d="M121 0v1397h49h49v-1397h-49h-49zM244 460l507 460h65h66l-497 -456l563 -464h-74h-74z" />
<glyph unicode="l" horiz-adv-x="385" d="M143 0v1397h49h49v-1397h-49h-49z" />
<glyph unicode="m" horiz-adv-x="1579" d="M123 0v920h49h49v-150l19 25q110 146 271 146q147 0 237 -99q44 -49 67 -112l42 65q109 146 270 146q147 0 237 -99t90 -261v-581h-49h-49v573q0 122 -67.5 196.5t-178.5 74.5q-121 0 -221 -120q-27 -31 -51 -72v-652h-49h-49v573q0 122 -67.5 196.5t-178.5 74.5 q-121 0 -222 -120q-27 -31 -51 -72v-652h-49h-49z" />
<glyph unicode="n" horiz-adv-x="1004" d="M127 0v920h49h49v-156l24 31q114 146 283 146q154 0 248 -103.5t94 -272.5v-565h-49h-49v559q0 128 -71 206.5t-188 78.5q-130 0 -236 -120q-30 -34 -56 -76v-648h-49h-49z" />
<glyph unicode="o" horiz-adv-x="1110" d="M86 459q0 212 131 347t337 135t337 -135t131 -347q0 -211 -131 -345.5t-337 -134.5t-337 134.5t-131 345.5zM187 459q0 -160 107.5 -272.5t259.5 -112.5t259.5 112.5t107.5 272.5q0 161 -107.5 274t-259.5 113t-259.5 -113t-107.5 -274z" />
<glyph unicode="p" horiz-adv-x="1044" d="M129 -475v1395h49h49v-50l19 10q111 61 249 61q208 0 335.5 -132.5t127.5 -349.5q0 -206 -132 -343t-331 -137q-144 0 -251 59l-17 9v-522h-49h-49zM227 149l59 -33q88 -40 195 -40q167 0 269.5 105.5t102.5 277.5q0 160 -109 272.5t-263 112.5q-116 0 -199 -38 q-31 -14 -55 -32v-625z" />
<glyph unicode="q" horiz-adv-x="1044" d="M76 459q0 198 130 340t311 142q156 0 272 -63l28 -17v59h98v-1395h-49h-49v538l-31 -19q-120 -65 -269 -65q-198 0 -319.5 132t-121.5 348zM181 421q0 -143 100 -244t242 -101q132 0 226 42q41 19 68 42v599q-26 21 -63 40q-90 45 -197 45q-169 0 -272.5 -116.5 t-103.5 -306.5z" />
<glyph unicode="r" horiz-adv-x="682" d="M109 0v920h49h49v-252q58 105 133 178q100 95 200 95q44 0 92.5 -27t111.5 -86l-50 -87q-67 57 -111.5 81t-83.5 24q-63 0 -135 -67t-157 -205v-574h-49h-49z" />
<glyph unicode="s" horiz-adv-x="725" d="M84 60v96q89 -44 154 -63t123 -19q85 0 145 49.5t60 119.5q0 60 -42 97q-42 36 -168 86q-157 62 -212 119t-55 156q0 98 88.5 169t211.5 71q62 0 120 -19t125 -62v-96q-65 43 -123.5 62.5t-121.5 19.5q-85 0 -144.5 -42.5t-59.5 -102.5q0 -63 41 -101t164 -86 q160 -63 216 -122t56 -163q0 -103 -89 -176.5t-212 -73.5q-56 0 -120.5 19t-156.5 62z" />
<glyph unicode="t" horiz-adv-x="618" d="M-39 839v81h247v222l68 82h1h29v-34v-270h247v-81h-247v-614q0 -77 34 -113t107 -36q102 0 165 51v-95q-70 -53 -177 -53q-105 0 -166 58.5t-61 159.5v642h-247z" />
<glyph unicode="u" horiz-adv-x="1004" d="M127 355v565h49h49v-559q0 -128 71 -206.5t188 -78.5q130 0 236 120q30 34 56 76v648h49h49v-920h-49h-49v159l-24 -34q-114 -146 -283 -146q-154 0 -248 103.5t-94 272.5z" />
<glyph unicode="v" horiz-adv-x="874" d="M0 920h51h51l339 -788l338 788h47h48l-407 -934h-30h-30z" />
<glyph unicode="w" horiz-adv-x="1450" d="M0 920h51h51l306 -774l290 788h30h30l292 -786l306 772h47h47l-375 -934h-30h-30l-290 771l-290 -771h-30h-30z" />
<glyph unicode="x" horiz-adv-x="981" d="M12 0l425 462l-416 458h64h65l352 -387l356 387h60h60l-416 -453l425 -467h-64h-65l-361 397l-365 -397h-60h-60z" />
<glyph unicode="y" horiz-adv-x="854" d="M12 920h53h53l335 -652l316 652h48h49l-693 -1416h-53h-53l331 675z" />
<glyph unicode="z" horiz-adv-x="811" d="M20 30l620 801h-564v44v45h713l7 -15l7 -15l-618 -801h592v-44v-45h-743l-7 15z" />
<glyph unicode="{" horiz-adv-x="682" d="M100 408v124q108 8 157.5 78t49.5 212v240q0 204 58.5 278t220.5 74v-89q-92 0 -134.5 -63t-42.5 -200v-240q0 -197 -65 -273q-48 -57 -158 -78q110 -25 158 -80q65 -76 65 -273v-240q0 -137 42.5 -200t134.5 -63v-89q-162 0 -220.5 74t-58.5 278v240q0 142 -49.5 212 t-157.5 78z" />
<glyph unicode="|" horiz-adv-x="455" d="M176 -525v2066h98v-2066h-98z" />
<glyph unicode="}" horiz-adv-x="682" d="M96 -385q92 0 134.5 63t42.5 200v240q0 197 65 273q48 55 158 80q-110 21 -158 78q-65 76 -65 273v240q0 137 -42.5 200t-134.5 63v89q162 0 220.5 -74t58.5 -278v-240q0 -142 49.5 -212t157.5 -78v-124q-108 -8 -157.5 -78t-49.5 -212v-240q0 -204 -59 -278 q-58 -74 -220 -74v89z" />
<glyph unicode="~" horiz-adv-x="1352" d="M137 596v94q51 63 129 97.5t171 34.5q54 0 110.5 -17.5t148.5 -62.5q83 -40 136 -56t106 -16q71 0 146 35t127 92v-94q-43 -63 -121 -97.5t-179 -34.5q-53 0 -109.5 17.5t-149.5 63.5q-82 40 -135 55.5t-107 15.5q-62 0 -137 -35t-136 -92z" />
<glyph unicode="&#xa1;" horiz-adv-x="362" d="M115 -446l33 1009h66l34 -1009h-133zM115 772v196h134v-196h-134z" />
<glyph unicode="&#xa2;" horiz-adv-x="854" d="M86 449q0 207 130 339t335 132q46 0 91 -6t124 -22v-99q-67 18 -111.5 25t-95.5 7q-154 0 -263 -110t-109 -266t109 -265.5t263 -109.5q61 0 114.5 12t128.5 41v-99q-76 -27 -131 -38t-120 -11q-205 0 -335 131.5t-130 338.5zM155 -389l600 1698h83l-600 -1698h-83z" />
<glyph unicode="&#xa3;" horiz-adv-x="1130" d="M193 -17l118 436l58 213h-163l1 89h187l40 148q69 251 208 398t306 147q30 0 49 -4t38 -14l53 -99q-31 14 -59.5 19.5t-72.5 5.5q-136 0 -247.5 -116.5t-165.5 -315.5l-46 -169h216l-1 -89h-240l-58 -213q-34 -123 -71 -252l-17 -58v-2q77 19 156 19q54 0 117 -6.5 t100 -15.5q39 -10 92 -17t92 -7q62 0 124.5 17.5t90.5 42.5v-102q-26 -23 -85.5 -39t-119.5 -16t-130 8t-112 19q-30 8 -76 13.5t-83 5.5q-91 0 -178 -13.5t-121 -32.5z" />
<glyph unicode="&#xa4;" horiz-adv-x="1139" d="M96 267l147 147q-99 117 -99 277q-1 161 100 278l-148 148l47 47l148 -148q116 99 277 100t276 -101l149 149l47 -47l-147 -147q99 -117 100 -279q0 -160 -100 -277l147 -147l-47 -47l-147 147q-116 -99 -278 -100q-162 0 -277 101l-148 -148zM211 691q0 -150 103.5 -253 t253.5 -103t254 103t104 253t-104 253.5t-254 103.5t-253.5 -103.5t-103.5 -253.5z" />
<glyph unicode="&#xa5;" horiz-adv-x="1139" d="M4 1397h60h60l448 -786l451 786h56h56l-450 -770h394v-81h-441l-14 -23v-120h455v-81h-455v-322h-54h-54v322h-454v81h454v110l-19 33h-435v81h388z" />
<glyph unicode="&#xa6;" horiz-adv-x="455" d="M176 360h98v-729h-98v729zM176 657v729h98v-729h-98z" />
<glyph unicode="&#xa7;" horiz-adv-x="811" d="M53 560q0 157 104 270q32 35 68 58l-31 43q-71 105 -71 199q0 116 84 200q83 84 199 84q114 0 189.5 -61t92.5 -166l-100 -3q-17 64 -64.5 98.5t-117.5 34.5q-73 0 -126 -53.5t-53 -128.5q0 -71 62 -157t184 -184q141 -113 213 -217.5t72 -197.5q0 -157 -104 -270 q-33 -35 -69 -59l31 -42q72 -105 72 -199q0 -116 -83.5 -200t-199.5 -84q-113 0 -188 56t-94 154l100 3q17 -56 64.5 -86t117.5 -30q73 0 126 53.5t53 128.5q0 70 -62 156t-185 184q-141 113 -212.5 218t-71.5 198zM157 565q0 -70 62 -155.5t184 -183.5q66 -52 115 -102 q34 20 63 53q73 82 73 197q0 69 -62 154.5t-185 183.5q-65 52 -115 103q-33 -21 -62 -53q-73 -82 -73 -197z" />
<glyph unicode="&#xa8;" horiz-adv-x="682" d="M70 1135q0 38 26 64t63 26t63 -26t26 -64q0 -37 -26 -63t-63 -26t-63 26t-26 63zM433 1135q0 38 26 64t63 26t63 -26t26 -64q0 -37 -26 -63t-63 -26t-63 26t-26 63z" />
<glyph unicode="&#xa9;" horiz-adv-x="1638" d="M55 1051q0 201 138.5 339.5t338.5 138.5q201 0 339.5 -138.5t138.5 -339.5q0 -200 -138.5 -338.5t-339.5 -138.5q-200 0 -338.5 138.5t-138.5 338.5zM120 1051q0 -173 119.5 -292.5t292.5 -119.5t293 119.5t120 292.5t-120 293t-293 120t-292.5 -120t-119.5 -293z M303 1060q0 116 75.5 195.5t184.5 79.5q58 0 114.5 -22t79.5 -54l-58 -62q-19 26 -58.5 44.5t-77.5 18.5q-78 0 -131.5 -58t-53.5 -142t54.5 -141.5t133.5 -57.5q37 0 77 19.5t61 47.5l58 -62q-24 -34 -81 -57t-115 -23q-110 0 -186.5 79.5t-76.5 194.5z" />
<glyph unicode="&#xaa;" horiz-adv-x="575" d="M43 973q0 99 95 155q91 52 247 55v67q0 52 -31.5 76t-99.5 24q-38 0 -82 -18t-95 -55v74q59 32 106.5 46t98.5 14q87 0 138 -37.5t51 -102.5v-299q0 -36 5 -49.5t19 -13.5q6 0 78 58v-69q-31 -26 -70 -45t-62 -19q-31 0 -44 25l-9 26q-17 -12 -41 -22q-59 -25 -124 -25 q-74 0 -127 40t-53 95zM130 977q0 -33 34 -55.5t84 -22.5q38 0 78 18.5t59 44.5v167q-123 -3 -189 -39.5t-66 -112.5z" />
<glyph unicode="&#xab;" horiz-adv-x="1024" d="M39 473l382 456h128l-382 -456l382 -457h-128zM475 473l382 456h128l-382 -456l382 -457h-128z" />
<glyph unicode="&#xac;" horiz-adv-x="1352" d="M139 896v89h1072v-576h-89v487h-983z" />
<glyph unicode="&#xad;" horiz-adv-x="641" d="M78 411v97h484v-97h-484z" />
<glyph unicode="&#xae;" horiz-adv-x="1638" d="M55 1046q0 201 138.5 339.5t338.5 138.5q201 0 339.5 -138.5t138.5 -339.5q0 -200 -138.5 -338.5t-339.5 -138.5q-200 0 -338.5 138.5t-138.5 338.5zM120 1046q0 -173 119.5 -292.5t292.5 -119.5t293 119.5t120 292.5t-120 293t-293 120t-292.5 -120t-119.5 -293z M365 807v506h187q62 0 104.5 -42.5t42.5 -104.5t-43 -105q-20 -20 -46 -31l89 -223h-91l-84 212h-84v-212h-75zM440 1094h112q30 0 51 21t21 51t-21 51t-51 21h-112v-72v-72z" />
<glyph unicode="&#xaf;" horiz-adv-x="1024" d="M-12 1526v105h1048v-105h-1048z" />
<glyph unicode="&#xb0;" horiz-adv-x="819" d="M125 1128q0 120 82.5 203t202.5 83t203 -83t83 -203t-83 -202.5t-203 -82.5t-202.5 82.5t-82.5 202.5zM207 1128q0 -85 59 -144t144 -59q86 0 145 59t59 144q0 86 -59 145t-145 59q-85 0 -144 -59t-59 -145z" />
<glyph unicode="&#xb1;" horiz-adv-x="1352" d="M139 3v89h1072v-89h-1072zM139 675v88h492v492h88v-492h492v-88h-492v-492h-88v492h-492z" />
<glyph unicode="&#xb2;" horiz-adv-x="641" d="M61 678q180 140 286 282t106 244q0 69 -48 110t-129 41q-50 0 -100.5 -24t-98.5 -70v84q54 38 103 55t104 17q112 0 184 -59q71 -59 71 -151q0 -115 -117 -274q-69 -92 -167 -187h361v-68h-555z" />
<glyph unicode="&#xb3;" horiz-adv-x="641" d="M90 701v70q51 -24 94 -34t97 -10q80 0 136 43t56 104q0 62 -56 105.5t-136 43.5h-21v66h23q75 0 128 38q52 37 52 91q0 57 -51 94t-129 37q-51 0 -92.5 -12.5t-86.5 -40.5v70q44 24 84 34.5t89 10.5q115 0 188 -51.5t73 -132.5t-61 -132q-29 -25 -66 -37q42 -14 76 -44 q64 -57 64 -147q0 -89 -73.5 -146t-189.5 -57q-53 0 -96.5 8t-101.5 29z" />
<glyph unicode="&#xb4;" horiz-adv-x="682" d="M313 1049l222 327h166l-322 -327h-66z" />
<glyph unicode="&#xb5;" horiz-adv-x="1139" d="M207 276v644h98v-574q0 -113 78.5 -191.5t191.5 -78.5q114 0 192.5 81t78.5 199v564h98v-920h-98v150q-17 -33 -41 -62q-88 -109 -216 -109t-216 88q-42 44 -68 96v-577h-98v690z" />
<glyph unicode="&#xb6;" horiz-adv-x="1331" d="M100 1045q0 216 161.5 348.5t425.5 132.5h260v-80h-138v-1772h-80v1772h-98v-1772h-80v892q-215 39 -333 163t-118 316z" />
<glyph unicode="&#xb7;" horiz-adv-x="362" d="M115 600v196h134v-196h-134z" />
<glyph unicode="&#xb8;" horiz-adv-x="682" d="M217 -345l10 67q9 -5 32 -8.5t47 -3.5q61 0 94 23t33 66q0 29 -29.5 48.5t-74.5 19.5l-31 -1l41 137h63l-24 -81q53 -6 87 -33q43 -33 43 -87q0 -72 -56 -116.5t-148 -44.5q-27 0 -52.5 4t-34.5 10z" />
<glyph unicode="&#xb9;" horiz-adv-x="641" d="M276 678v730h42h42v-730h-42h-42z" />
<glyph unicode="&#xba;" horiz-adv-x="725" d="M51 1124q0 126 87 206.5t224 80.5t224.5 -80.5t87.5 -206.5t-87.5 -206t-224.5 -80t-224 80t-87 206zM134 1124q0 -90 66.5 -154t161.5 -64t162 64t67 154q0 91 -67 155t-162 64t-161.5 -64t-66.5 -155z" />
<glyph unicode="&#xbb;" horiz-adv-x="1024" d="M39 16l382 456l-382 457h128l382 -457l-382 -456h-128zM475 16l382 456l-382 457h128l382 -457l-382 -456h-128z" />
<glyph unicode="&#xbc;" horiz-adv-x="1706" d="M127 -56l1084 1467h78l-1084 -1467h-78zM147 678v730h42h42v-730h-42h-42zM864 237v14v14l433 454h13h14v-414h115v-68h-115v-237h-79v237h-381zM976 305h269v282z" />
<glyph unicode="&#xbd;" horiz-adv-x="1706" d="M127 -56l1084 1467h78l-1084 -1467h-78zM186 678v730h42h42v-730h-42h-42zM1030 0q180 140 286 282t106 244q0 69 -48 110t-129 41q-50 0 -100.5 -24t-98.5 -70v84q54 38 103 55t104 17q112 0 184 -59q71 -59 71 -151q0 -115 -117 -274q-69 -92 -167 -187h361v-68h-555z " />
<glyph unicode="&#xbe;" horiz-adv-x="1706" d="M251 -56l1084 1467h78l-1084 -1467h-78zM137 701v70q51 -24 94 -34t97 -10q80 0 136 43t56 104q0 62 -56 105.5t-136 43.5h-21v66h23q75 0 128 38q52 37 52 91q0 57 -51 94t-129 37q-51 0 -92.5 -12.5t-86.5 -40.5v70q44 24 84 34.5t89 10.5q115 0 188 -51.5t73 -132.5 t-61 -132q-29 -25 -66 -37q42 -14 76 -44q64 -57 64 -147q0 -89 -73.5 -146t-189.5 -57q-53 0 -96.5 8t-101.5 29zM951 237v14v14l433 454h13h14v-414h115v-68h-115v-237h-79v237h-381zM1063 305h269v282z" />
<glyph unicode="&#xbf;" horiz-adv-x="575" d="M45 -210q0 87 28 164t93 170q115 164 136 268t-45 181l46 28q94 -110 83 -218.5t-136 -312.5q-53 -87 -75.5 -151t-22.5 -129q0 -77 46 -131q45 -54 110 -54q46 0 90.5 22t88.5 66l-42 -147q-40 -21 -71.5 -29.5t-65.5 -8.5q-108 0 -185.5 83t-77.5 199zM213 726v196h134 v-196h-134z" />
<glyph unicode="&#xc0;" horiz-adv-x="1366" d="M8 0l645 1411h30h30l645 -1411h-59h-60l-220 484h-682l-217 -484h-56h-56zM379 574h600l-301 662zM352 1853h166l220 -327h-66z" />
<glyph unicode="&#xc1;" horiz-adv-x="1366" d="M8 0l645 1411h30h30l645 -1411h-59h-60l-220 484h-682l-217 -484h-56h-56zM379 574h600l-301 662zM596 1526l222 327h166l-322 -327h-66z" />
<glyph unicode="&#xc2;" horiz-adv-x="1366" d="M8 0l645 1411h30h30l645 -1411h-59h-60l-220 484h-682l-217 -484h-56h-56zM379 574h600l-301 662zM401 1523l218 339h64h64l218 -339h-87l-195 226l-195 -226h-87z" />
<glyph unicode="&#xc3;" horiz-adv-x="1366" d="M8 0l645 1411h30h30l645 -1411h-59h-60l-220 484h-682l-217 -484h-56h-56zM379 574h600l-301 662zM348 1522q6 93 47 143t111 50q40 0 82.5 -11t113.5 -41q72 -30 108.5 -41t62.5 -11q27 0 49.5 27.5t31.5 72.5h64q-6 -93 -47 -143t-111 -50q-39 0 -81 11.5t-115 41.5 q-70 29 -107 40t-64 11t-49.5 -27.5t-31.5 -72.5h-64z" />
<glyph unicode="&#xc4;" horiz-adv-x="1366" d="M8 0l645 1411h30h30l645 -1411h-59h-60l-220 484h-682l-217 -484h-56h-56zM379 574h600l-301 662zM412 1612q0 38 26 64t63 26t63 -26t26 -64q0 -37 -26 -63t-63 -26t-63 26t-26 63zM775 1612q0 38 26 64t63 26t63 -26t26 -64q0 -37 -26 -63t-63 -26t-63 26t-26 63z" />
<glyph unicode="&#xc5;" horiz-adv-x="1366" d="M8 0l645 1411h30h30l645 -1411h-59h-60l-220 484h-682l-217 -484h-56h-56zM379 574h600l-301 662zM506 1658q0 74 51.5 125.5t125.5 51.5t125.5 -51.5t51.5 -125.5t-51.5 -125.5t-125.5 -51.5t-125.5 51.5t-51.5 125.5zM560 1658q0 -52 35.5 -87.5t87.5 -35.5t87.5 35.5 t35.5 87.5t-35.5 87.5t-87.5 35.5t-87.5 -35.5t-35.5 -87.5z" />
<glyph unicode="&#xc6;" horiz-adv-x="1772" d="M-29 0l885 1397h168h646v-45v-45h-646v-560h631v-45v-45h-631v-567h670v-45v-45h-670h-108v484h-520l-304 -484h-60h-61zM452 574h464v739z" />
<glyph unicode="&#xc7;" horiz-adv-x="1386" d="M100 698q0 301 208.5 508.5t509.5 207.5q145 0 264 -29.5t257 -99.5v-110q-135 76 -253 109t-258 33q-252 0 -430.5 -181t-178.5 -438q0 -256 178.5 -437t430.5 -181q140 0 258 33t253 109v-110q-138 -70 -257 -99.5t-264 -29.5q-294 0 -506 211t-212 504zM665 -345 l10 67q9 -5 32 -8.5t47 -3.5q61 0 94 23t33 66q0 29 -29.5 48.5t-74.5 19.5l-31 -1l41 137h63l-24 -81q53 -6 87 -33q43 -33 43 -87q0 -72 -56 -116.5t-148 -44.5q-27 0 -52.5 4t-34.5 10z" />
<glyph unicode="&#xc8;" horiz-adv-x="1004" d="M164 0v1397h754v-45v-45h-646v-560h631v-45v-45h-631v-567h670v-45v-45h-778zM211 1853h166l220 -327h-66z" />
<glyph unicode="&#xc9;" horiz-adv-x="1004" d="M164 0v1397h754v-45v-45h-646v-560h631v-45v-45h-631v-567h670v-45v-45h-778zM455 1526l222 327h166l-322 -327h-66z" />
<glyph unicode="&#xca;" horiz-adv-x="1004" d="M164 0v1397h754v-45v-45h-646v-560h631v-45v-45h-631v-567h670v-45v-45h-778zM260 1523l218 339h64h64l218 -339h-87l-195 226l-195 -226h-87z" />
<glyph unicode="&#xcb;" horiz-adv-x="1004" d="M164 0v1397h754v-45v-45h-646v-560h631v-45v-45h-631v-567h670v-45v-45h-778zM271 1612q0 38 26 64t63 26t63 -26t26 -64q0 -37 -26 -63t-63 -26t-63 26t-26 63zM634 1612q0 38 26 64t63 26t63 -26t26 -64q0 -37 -26 -63t-63 -26t-63 26t-26 63z" />
<glyph unicode="&#xcc;" horiz-adv-x="426" d="M157 0v1397h54h54v-1397h-54h-54zM-120 1853h166l220 -327h-66z" />
<glyph unicode="&#xcd;" horiz-adv-x="426" d="M153 0v1397h54h54v-1397h-54h-54zM120 1526l222 327h166l-322 -327h-66z" />
<glyph unicode="&#xce;" horiz-adv-x="426" d="M160 0v1397h54h54v-1397h-54h-54zM-68 1523l218 339h64h64l218 -339h-87l-195 226l-195 -226h-87z" />
<glyph unicode="&#xcf;" horiz-adv-x="426" d="M160 0v1397h54h54v-1397h-54h-54zM-57 1612q0 38 26 64t63 26t63 -26t26 -64q0 -37 -26 -63t-63 -26t-63 26t-26 63zM306 1612q0 38 26 64t63 26t63 -26t26 -64q0 -37 -26 -63t-63 -26t-63 26t-26 63z" />
<glyph unicode="&#xd0;" horiz-adv-x="1516" d="M-47 654v90h207v653h54h464q331 0 533 -192t202 -507q0 -314 -207.5 -506t-548.5 -192h-443h-54v654h-207zM268 97h389q290 0 463.5 164t173.5 437q0 274 -167.5 438t-448.5 164h-410v-556h462v-90h-462v-557z" />
<glyph unicode="&#xd1;" horiz-adv-x="1579" d="M160 0v1397h46h46l1059 -1203v1203h54h54v-1411h-33h-34l-1084 1230v-1216h-54h-54zM454 1522q6 93 47 143t111 50q40 0 82.5 -11t113.5 -41q72 -30 108.5 -41t62.5 -11q27 0 49.5 27.5t31.5 72.5h64q-6 -93 -47 -143t-111 -50q-39 0 -81 11.5t-115 41.5q-70 29 -107 40 t-64 11t-49.5 -27.5t-31.5 -72.5h-64z" />
<glyph unicode="&#xd2;" horiz-adv-x="1686" d="M104 698q0 294 218 505t521 211q304 0 522 -211t218 -505q0 -293 -218 -504t-522 -211q-303 0 -521 211t-218 504zM223 698q0 -256 181.5 -437t438.5 -181q258 0 439.5 181t181.5 437q0 257 -181.5 438t-439.5 181q-257 0 -438.5 -181t-181.5 -438zM512 1853h166 l220 -327h-66z" />
<glyph unicode="&#xd3;" horiz-adv-x="1686" d="M104 698q0 294 218 505t521 211q304 0 522 -211t218 -505q0 -293 -218 -504t-522 -211q-303 0 -521 211t-218 504zM223 698q0 -256 181.5 -437t438.5 -181q258 0 439.5 181t181.5 437q0 257 -181.5 438t-439.5 181q-257 0 -438.5 -181t-181.5 -438zM756 1526l222 327h166 l-322 -327h-66z" />
<glyph unicode="&#xd4;" horiz-adv-x="1686" d="M104 698q0 294 218 505t521 211q304 0 522 -211t218 -505q0 -293 -218 -504t-522 -211q-303 0 -521 211t-218 504zM223 698q0 -256 181.5 -437t438.5 -181q258 0 439.5 181t181.5 437q0 257 -181.5 438t-439.5 181q-257 0 -438.5 -181t-181.5 -438zM561 1523l218 339h64 h64l218 -339h-87l-195 226l-195 -226h-87z" />
<glyph unicode="&#xd5;" horiz-adv-x="1686" d="M104 698q0 294 218 505t521 211q304 0 522 -211t218 -505q0 -293 -218 -504t-522 -211q-303 0 -521 211t-218 504zM223 698q0 -256 181.5 -437t438.5 -181q258 0 439.5 181t181.5 437q0 257 -181.5 438t-439.5 181q-257 0 -438.5 -181t-181.5 -438zM508 1522q6 93 47 143 t111 50q40 0 82.5 -11t113.5 -41q72 -30 108.5 -41t62.5 -11q27 0 49.5 27.5t31.5 72.5h64q-6 -93 -47 -143t-111 -50q-39 0 -81 11.5t-115 41.5q-70 29 -107 40t-64 11t-49.5 -27.5t-31.5 -72.5h-64z" />
<glyph unicode="&#xd6;" horiz-adv-x="1686" d="M104 698q0 294 218 505t521 211q304 0 522 -211t218 -505q0 -293 -218 -504t-522 -211q-303 0 -521 211t-218 504zM223 698q0 -256 181.5 -437t438.5 -181q258 0 439.5 181t181.5 437q0 257 -181.5 438t-439.5 181q-257 0 -438.5 -181t-181.5 -438zM572 1612q0 38 26 64 t63 26t63 -26t26 -64q0 -37 -26 -63t-63 -26t-63 26t-26 63zM935 1612q0 38 26 64t63 26t63 -26t26 -64q0 -37 -26 -63t-63 -26t-63 26t-26 63z" />
<glyph unicode="&#xd7;" horiz-adv-x="1352" d="M264 371l348 348l-348 348l62 62l348 -348l348 348l62 -62l-348 -348l348 -348l-62 -62l-348 348l-348 -348z" />
<glyph unicode="&#xd8;" horiz-adv-x="1686" d="M104 55l1422 1342l56 -55l-1422 -1342zM104 698q0 294 218 505t521 211q304 0 522 -211t218 -505q0 -293 -218 -504t-522 -211q-303 0 -521 211t-218 504zM223 698q0 -256 181.5 -437t438.5 -181q258 0 439.5 181t181.5 437q0 257 -181.5 438t-439.5 181 q-257 0 -438.5 -181t-181.5 -438z" />
<glyph unicode="&#xd9;" horiz-adv-x="1430" d="M131 627v770h54h54v-776q0 -251 128 -395t349 -144q222 0 349 144t127 395v776h54h54v-770q0 -299 -156 -471.5t-428 -172.5t-428.5 172.5t-156.5 471.5zM384 1853h166l220 -327h-66z" />
<glyph unicode="&#xda;" horiz-adv-x="1430" d="M131 627v770h54h54v-776q0 -251 128 -395t349 -144q222 0 349 144t127 395v776h54h54v-770q0 -299 -156 -471.5t-428 -172.5t-428.5 172.5t-156.5 471.5zM628 1526l222 327h166l-322 -327h-66z" />
<glyph unicode="&#xdb;" horiz-adv-x="1430" d="M131 627v770h54h54v-776q0 -251 128 -395t349 -144q222 0 349 144t127 395v776h54h54v-770q0 -299 -156 -471.5t-428 -172.5t-428.5 172.5t-156.5 471.5zM433 1523l218 339h64h64l218 -339h-87l-195 226l-195 -226h-87z" />
<glyph unicode="&#xdc;" horiz-adv-x="1430" d="M131 627v770h54h54v-776q0 -251 128 -395t349 -144q222 0 349 144t127 395v776h54h54v-770q0 -299 -156 -471.5t-428 -172.5t-428.5 172.5t-156.5 471.5zM444 1612q0 38 26 64t63 26t63 -26t26 -64q0 -37 -26 -63t-63 -26t-63 26t-26 63zM807 1612q0 38 26 64t63 26 t63 -26t26 -64q0 -37 -26 -63t-63 -26t-63 26t-26 63z" />
<glyph unicode="&#xdd;" horiz-adv-x="1194" d="M0 1397h68h69l462 -561l467 561h64h64l-543 -639v-758h-54h-54v751zM510 1526l222 327h166l-322 -327h-66z" />
<glyph unicode="&#xde;" horiz-adv-x="1044" d="M160 0v1397h54h54v-322h245q234 0 361 -98.5t127 -279.5t-127 -278.5t-361 -97.5h-245v-321h-54h-54zM268 418h245q179 0 274 72t95 207q0 136 -95 208.5t-274 72.5h-245v-560z" />
<glyph unicode="&#xdf;" horiz-adv-x="1024" d="M127 0v1008q0 187 102.5 296.5t278.5 109.5q169 0 272.5 -91t103.5 -240q0 -137 -96 -236q-40 -41 -88 -66q78 -28 135 -90q105 -113 105 -299q0 -169 -107 -291t-255 -122q-30 0 -58.5 4.5t-75.5 16.5v99q38 -13 66 -18.5t60 -5.5q121 0 195 90t74 237q0 157 -73 242 t-208 85v95q101 0 163 70.5t62 186.5q0 121 -73 187t-207 66q-132 0 -205 -86q-73 -85 -73 -240v-1008h-49h-49z" />
<glyph unicode="&#xe0;" horiz-adv-x="874" d="M74 209q0 156 153 251q147 92 381 95v116q0 92 -50 135t-157 43q-76 0 -143.5 -28t-133.5 -86v105q73 53 145 77t158 24q129 0 204 -63.5t75 -171.5v-586q0 -23 7.5 -33.5t23.5 -10.5q12 0 48.5 23t75.5 55l1 -76q-45 -39 -101 -67.5t-89 -28.5q-31 0 -47.5 28.5 t-16.5 81.5v2q-43 -36 -101 -66q-98 -49 -191 -49q-102 0 -172 66.5t-70 163.5zM168 214q0 -63 53 -105.5t131 -42.5q77 0 147 32.5t109 86.5v292q-177 -4 -306 -77q-134 -77 -134 -186zM81 1376h161l221 -327h-64z" />
<glyph unicode="&#xe1;" horiz-adv-x="874" d="M74 209q0 156 153 251q147 92 381 95v116q0 92 -50 135t-157 43q-76 0 -143.5 -28t-133.5 -86v105q73 53 145 77t158 24q129 0 204 -63.5t75 -171.5v-586q0 -23 7.5 -33.5t23.5 -10.5q12 0 48.5 23t75.5 55l1 -76q-45 -39 -101 -67.5t-89 -28.5q-31 0 -47.5 28.5 t-16.5 81.5v2q-43 -36 -101 -66q-98 -49 -191 -49q-102 0 -172 66.5t-70 163.5zM168 214q0 -63 53 -105.5t131 -42.5q77 0 147 32.5t109 86.5v292q-177 -4 -306 -77q-134 -77 -134 -186zM349 1049l222 327h166l-322 -327h-66z" />
<glyph unicode="&#xe2;" horiz-adv-x="874" d="M74 209q0 156 153 251q147 92 381 95v116q0 92 -50 135t-157 43q-76 0 -143.5 -28t-133.5 -86v105q73 53 145 77t158 24q129 0 204 -63.5t75 -171.5v-586q0 -23 7.5 -33.5t23.5 -10.5q12 0 48.5 23t75.5 55l1 -76q-45 -39 -101 -67.5t-89 -28.5q-31 0 -47.5 28.5 t-16.5 81.5v2q-43 -36 -101 -66q-98 -49 -191 -49q-102 0 -172 66.5t-70 163.5zM168 214q0 -63 53 -105.5t131 -42.5q77 0 147 32.5t109 86.5v292q-177 -4 -306 -77q-134 -77 -134 -186zM127 1046l218 339h64h64l218 -339h-87l-195 226l-195 -226h-87z" />
<glyph unicode="&#xe3;" horiz-adv-x="874" d="M74 209q0 156 153 251q147 92 381 95v116q0 92 -50 135t-157 43q-76 0 -143.5 -28t-133.5 -86v105q73 53 145 77t158 24q129 0 204 -63.5t75 -171.5v-586q0 -23 7.5 -33.5t23.5 -10.5q12 0 48.5 23t75.5 55l1 -76q-45 -39 -101 -67.5t-89 -28.5q-31 0 -47.5 28.5 t-16.5 81.5v2q-43 -36 -101 -66q-98 -49 -191 -49q-102 0 -172 66.5t-70 163.5zM168 214q0 -63 53 -105.5t131 -42.5q77 0 147 32.5t109 86.5v292q-177 -4 -306 -77q-134 -77 -134 -186zM74 1045q6 93 47 143t111 50q40 0 82.5 -11t113.5 -41q72 -30 108.5 -41t62.5 -11 q27 0 49.5 27.5t31.5 72.5h64q-6 -93 -47 -143t-111 -50q-39 0 -81 11.5t-115 41.5q-70 29 -107 40t-64 11t-49.5 -27.5t-31.5 -72.5h-64z" />
<glyph unicode="&#xe4;" horiz-adv-x="874" d="M74 209q0 156 153 251q147 92 381 95v116q0 92 -50 135t-157 43q-76 0 -143.5 -28t-133.5 -86v105q73 53 145 77t158 24q129 0 204 -63.5t75 -171.5v-586q0 -23 7.5 -33.5t23.5 -10.5q12 0 48.5 23t75.5 55l1 -76q-45 -39 -101 -67.5t-89 -28.5q-31 0 -47.5 28.5 t-16.5 81.5v2q-43 -36 -101 -66q-98 -49 -191 -49q-102 0 -172 66.5t-70 163.5zM168 214q0 -63 53 -105.5t131 -42.5q77 0 147 32.5t109 86.5v292q-177 -4 -306 -77q-134 -77 -134 -186zM138 1135q0 38 26 64t63 26t63 -26t26 -64q0 -37 -26 -63t-63 -26t-63 26t-26 63z M501 1135q0 38 26 64t63 26t63 -26t26 -64q0 -37 -26 -63t-63 -26t-63 26t-26 63z" />
<glyph unicode="&#xe5;" horiz-adv-x="874" d="M74 209q0 156 153 251q147 92 381 95v116q0 92 -50 135t-157 43q-76 0 -143.5 -28t-133.5 -86v105q73 53 145 77t158 24q129 0 204 -63.5t75 -171.5v-586q0 -23 7.5 -33.5t23.5 -10.5q12 0 48.5 23t75.5 55l1 -76q-45 -39 -101 -67.5t-89 -28.5q-31 0 -47.5 28.5 t-16.5 81.5v2q-43 -36 -101 -66q-98 -49 -191 -49q-102 0 -172 66.5t-70 163.5zM168 214q0 -63 53 -105.5t131 -42.5q77 0 147 32.5t109 86.5v292q-177 -4 -306 -77q-134 -77 -134 -186zM232 1181q0 74 51.5 125.5t125.5 51.5t125.5 -51.5t51.5 -125.5t-51.5 -125.5 t-125.5 -51.5t-125.5 51.5t-51.5 125.5zM286 1181q0 -52 35.5 -87.5t87.5 -35.5t87.5 35.5t35.5 87.5t-35.5 87.5t-87.5 35.5t-87.5 -35.5t-35.5 -87.5z" />
<glyph unicode="&#xe6;" horiz-adv-x="1366" d="M68 209q0 130 134 222.5t400 147.5v92q0 92 -50 135t-157 43q-76 0 -143.5 -28t-133.5 -86v105q73 53 145.5 77t157.5 24q129 0 204 -64q36 -30 54 -70q100 133 250 134q173 0 267 -126q89 -116 93 -330h-589v-21q0 -196 73 -288.5t228 -92.5q78 0 149.5 32t139.5 97 v-102q-71 -67 -145.5 -99t-157.5 -32q-184 0 -301 121l-24 27q-65 -65 -161.5 -106.5t-179.5 -41.5q-106 0 -179.5 66.5t-73.5 163.5zM162 214q0 -63 53 -105.5t131 -42.5q62 0 132 32.5t124 86.5v315q-197 -44 -316 -118q-124 -78 -124 -168zM704 563h478q-13 109 -59 180 q-65 103 -179 103q-126 0 -185 -93q-43 -67 -55 -190z" />
<glyph unicode="&#xe7;" horiz-adv-x="854" d="M86 459q0 212 128.5 347t330.5 135q57 0 107.5 -11t119.5 -38v-100q-74 28 -127 39t-114 11q-143 0 -243.5 -112t-100.5 -271q0 -177 98 -279t269 -102q62 0 115 11t124 39v-100q-72 -27 -127 -38t-121 -11q-202 0 -330.5 134.5t-128.5 345.5zM392 -345l10 67 q9 -5 32 -8.5t47 -3.5q61 0 94 23t33 66q0 29 -29.5 48.5t-74.5 19.5l-31 -1l41 137h63l-24 -81q53 -6 87 -33q43 -33 43 -87q0 -72 -56 -116.5t-148 -44.5q-27 0 -52.5 4t-34.5 10z" />
<glyph unicode="&#xe8;" horiz-adv-x="981" d="M82 459q0 212 116 347t298 135q199 0 307 -126q102 -116 107 -330h-727v-21q0 -158 112 -269.5t271 -111.5q96 0 179 31t166 98v-102q-82 -68 -166.5 -99.5t-182.5 -31.5q-211 0 -345.5 134.5t-134.5 345.5zM192 563h609q-16 109 -75 180q-84 103 -230 103 q-130 0 -222 -112q-60 -74 -82 -171zM185 1376h161l221 -327h-64z" />
<glyph unicode="&#xe9;" horiz-adv-x="981" d="M82 459q0 212 116 347t298 135q199 0 307 -126q102 -116 107 -330h-727v-21q0 -158 112 -269.5t271 -111.5q96 0 179 31t166 98v-102q-82 -68 -166.5 -99.5t-182.5 -31.5q-211 0 -345.5 134.5t-134.5 345.5zM192 563h609q-16 109 -75 180q-84 103 -230 103 q-130 0 -222 -112q-60 -74 -82 -171zM453 1049l222 327h166l-322 -327h-66z" />
<glyph unicode="&#xea;" horiz-adv-x="981" d="M82 459q0 212 116 347t298 135q199 0 307 -126q102 -116 107 -330h-727v-21q0 -158 112 -269.5t271 -111.5q96 0 179 31t166 98v-102q-82 -68 -166.5 -99.5t-182.5 -31.5q-211 0 -345.5 134.5t-134.5 345.5zM192 563h609q-16 109 -75 180q-84 103 -230 103 q-130 0 -222 -112q-60 -74 -82 -171zM231 1046l218 339h64h64l218 -339h-87l-195 226l-195 -226h-87z" />
<glyph unicode="&#xeb;" horiz-adv-x="981" d="M82 459q0 212 116 347t298 135q199 0 307 -126q102 -116 107 -330h-727v-21q0 -158 112 -269.5t271 -111.5q96 0 179 31t166 98v-102q-82 -68 -166.5 -99.5t-182.5 -31.5q-211 0 -345.5 134.5t-134.5 345.5zM192 563h609q-16 109 -75 180q-84 103 -230 103 q-130 0 -222 -112q-60 -74 -82 -171zM242 1135q0 38 26 64t63 26t63 -26t26 -64q0 -37 -26 -63t-63 -26t-63 26t-26 63zM605 1135q0 38 26 64t63 26t63 -26t26 -64q0 -37 -26 -63t-63 -26t-63 26t-26 63z" />
<glyph unicode="&#xec;" horiz-adv-x="385" d="M139 0v920h49h49v-920h-49h-49zM-140 1376h161l221 -327h-64z" />
<glyph unicode="&#xed;" horiz-adv-x="385" d="M141 0v920h49h49v-920h-49h-49zM130 1049l222 327h166l-322 -327h-66z" />
<glyph unicode="&#xee;" horiz-adv-x="385" d="M145 0v920h49h49v-920h-49h-49zM-88 1046l218 339h64h64l218 -339h-87l-195 226l-195 -226h-87z" />
<glyph unicode="&#xef;" horiz-adv-x="385" d="M145 0v920h49h49v-920h-49h-49zM-77 1135q0 38 26 64t63 26t63 -26t26 -64q0 -37 -26 -63t-63 -26t-63 26t-26 63zM286 1135q0 38 26 64t63 26t63 -26t26 -64q0 -37 -26 -63t-63 -26t-63 26t-26 63z" />
<glyph unicode="&#xf0;" horiz-adv-x="1145" d="M108 457q0 211 131 345t336 134q134 0 249 -70l38 -25q-34 72 -83 141q-163 229 -430 340l38 75q296 -122 476 -372t180 -536q0 -230 -128.5 -370t-339.5 -140q-205 0 -336 134t-131 344zM209 457q0 -159 107 -271t259 -112t259.5 112t107.5 271t-107.5 271.5 t-259.5 112.5t-259 -113q-107 -112 -107 -271zM295 1076l642 321l31 -65l-642 -321z" />
<glyph unicode="&#xf1;" horiz-adv-x="1004" d="M127 0v920h49h49v-156l24 31q114 146 283 146q154 0 248 -103.5t94 -272.5v-565h-49h-49v559q0 128 -71 206.5t-188 78.5q-130 0 -236 -120q-30 -34 -56 -76v-648h-49h-49zM165 1045q6 93 47 143t111 50q40 0 82.5 -11t113.5 -41q72 -30 108.5 -41t62.5 -11 q27 0 49.5 27.5t31.5 72.5h64q-6 -93 -47 -143t-111 -50q-39 0 -81 11.5t-115 41.5q-70 29 -107 40t-64 11t-49.5 -27.5t-31.5 -72.5h-64z" />
<glyph unicode="&#xf2;" horiz-adv-x="1110" d="M86 459q0 212 131 347t337 135t337 -135t131 -347q0 -211 -131 -345.5t-337 -134.5t-337 134.5t-131 345.5zM187 459q0 -160 107.5 -272.5t259.5 -112.5t259.5 112.5t107.5 272.5q0 161 -107.5 274t-259.5 113t-259.5 -113t-107.5 -274zM226 1376h161l221 -327h-64z" />
<glyph unicode="&#xf3;" horiz-adv-x="1110" d="M86 459q0 212 131 347t337 135t337 -135t131 -347q0 -211 -131 -345.5t-337 -134.5t-337 134.5t-131 345.5zM187 459q0 -160 107.5 -272.5t259.5 -112.5t259.5 112.5t107.5 272.5q0 161 -107.5 274t-259.5 113t-259.5 -113t-107.5 -274zM494 1049l222 327h166l-322 -327 h-66z" />
<glyph unicode="&#xf4;" horiz-adv-x="1110" d="M86 459q0 212 131 347t337 135t337 -135t131 -347q0 -211 -131 -345.5t-337 -134.5t-337 134.5t-131 345.5zM187 459q0 -160 107.5 -272.5t259.5 -112.5t259.5 112.5t107.5 272.5q0 161 -107.5 274t-259.5 113t-259.5 -113t-107.5 -274zM272 1046l218 339h64h64l218 -339 h-87l-195 226l-195 -226h-87z" />
<glyph unicode="&#xf5;" horiz-adv-x="1110" d="M86 459q0 212 131 347t337 135t337 -135t131 -347q0 -211 -131 -345.5t-337 -134.5t-337 134.5t-131 345.5zM187 459q0 -160 107.5 -272.5t259.5 -112.5t259.5 112.5t107.5 272.5q0 161 -107.5 274t-259.5 113t-259.5 -113t-107.5 -274zM219 1045q6 93 47 143t111 50 q40 0 82.5 -11t113.5 -41q72 -30 108.5 -41t62.5 -11q27 0 49.5 27.5t31.5 72.5h64q-6 -93 -47 -143t-111 -50q-39 0 -81 11.5t-115 41.5q-70 29 -107 40t-64 11t-49.5 -27.5t-31.5 -72.5h-64z" />
<glyph unicode="&#xf6;" horiz-adv-x="1110" d="M86 459q0 212 131 347t337 135t337 -135t131 -347q0 -211 -131 -345.5t-337 -134.5t-337 134.5t-131 345.5zM187 459q0 -160 107.5 -272.5t259.5 -112.5t259.5 112.5t107.5 272.5q0 161 -107.5 274t-259.5 113t-259.5 -113t-107.5 -274zM283 1135q0 38 26 64t63 26 t63 -26t26 -64q0 -37 -26 -63t-63 -26t-63 26t-26 63zM646 1135q0 38 26 64t63 26t63 -26t26 -64q0 -37 -26 -63t-63 -26t-63 26t-26 63z" />
<glyph unicode="&#xf7;" horiz-adv-x="1352" d="M139 675v89h1072v-89h-1072zM596 382q0 33 23 56t56 23t56 -23t23 -56t-23 -56t-56 -23t-56 23t-23 56zM596 1057q0 33 23 56t56 23t56 -23t23 -56t-23 -56t-56 -23t-56 23t-23 56z" />
<glyph unicode="&#xf8;" horiz-adv-x="1110" d="M86 43l891 877l45 -43l-891 -877zM86 459q0 212 131 347t337 135t337 -135t131 -347q0 -211 -131 -345.5t-337 -134.5t-337 134.5t-131 345.5zM187 459q0 -160 107.5 -272.5t259.5 -112.5t259.5 112.5t107.5 272.5q0 161 -107.5 274t-259.5 113t-259.5 -113t-107.5 -274z " />
<glyph unicode="&#xf9;" horiz-adv-x="1004" d="M127 355v565h49h49v-559q0 -128 71 -206.5t188 -78.5q130 0 236 120q30 34 56 76v648h49h49v-920h-49h-49v159l-24 -34q-114 -146 -283 -146q-154 0 -248 103.5t-94 272.5zM172 1376h161l221 -327h-64z" />
<glyph unicode="&#xfa;" horiz-adv-x="1004" d="M127 355v565h49h49v-559q0 -128 71 -206.5t188 -78.5q130 0 236 120q30 34 56 76v648h49h49v-920h-49h-49v159l-24 -34q-114 -146 -283 -146q-154 0 -248 103.5t-94 272.5zM440 1049l222 327h166l-322 -327h-66z" />
<glyph unicode="&#xfb;" horiz-adv-x="1004" d="M127 355v565h49h49v-559q0 -128 71 -206.5t188 -78.5q130 0 236 120q30 34 56 76v648h49h49v-920h-49h-49v159l-24 -34q-114 -146 -283 -146q-154 0 -248 103.5t-94 272.5zM218 1046l218 339h64h64l218 -339h-87l-195 226l-195 -226h-87z" />
<glyph unicode="&#xfc;" horiz-adv-x="1004" d="M127 355v565h49h49v-559q0 -128 71 -206.5t188 -78.5q130 0 236 120q30 34 56 76v648h49h49v-920h-49h-49v159l-24 -34q-114 -146 -283 -146q-154 0 -248 103.5t-94 272.5zM229 1135q0 38 26 64t63 26t63 -26t26 -64q0 -37 -26 -63t-63 -26t-63 26t-26 63zM592 1135 q0 38 26 64t63 26t63 -26t26 -64q0 -37 -26 -63t-63 -26t-63 26t-26 63z" />
<glyph unicode="&#xfd;" horiz-adv-x="854" d="M12 920h53h53l335 -652l316 652h48h49l-693 -1416h-53h-53l331 675zM379 1049l222 327h166l-322 -327h-66z" />
<glyph unicode="&#xfe;" horiz-adv-x="1044" d="M129 -475v1872h49h49v-527l19 10q111 61 249 61q208 0 335.5 -132.5t127.5 -349.5q0 -206 -132 -343t-331 -137q-144 0 -251 59l-17 9v-522h-49h-49zM227 150q26 -18 59 -34q88 -40 195 -40q167 0 269.5 105.5t102.5 277.5q0 160 -109 272.5t-263 112.5q-116 0 -199 -38 q-31 -15 -55 -31v-625z" />
<glyph unicode="&#xff;" horiz-adv-x="854" d="M12 920h53h53l335 -652l316 652h48h49l-693 -1416h-53h-53l331 675zM168 1135q0 38 26 64t63 26t63 -26t26 -64q0 -37 -26 -63t-63 -26t-63 26t-26 63zM531 1135q0 38 26 64t63 26t63 -26t26 -64q0 -37 -26 -63t-63 -26t-63 26t-26 63z" />
<glyph unicode="&#x131;" horiz-adv-x="385" d="M143 0v920h49h49v-920h-49h-49z" />
<glyph unicode="&#x152;" horiz-adv-x="1835" d="M84 698q0 287 210 493q209 206 499 206h186h108h646v-45v-45h-646v-560h631v-45v-45h-631v-567h670v-45v-45h-670h-108h-186q-290 0 -499.5 206t-209.5 492zM203 698q0 -249 185 -425t447 -176q76 0 144 15v1176q-68 10 -144 12q-262 0 -447 -176t-185 -426z" />
<glyph unicode="&#x153;" horiz-adv-x="1706" d="M84 459q0 212 114 347q113 135 292 135t293 -135q38 -44 62 -98q29 54 66 98q116 135 298 135q199 0 307 -126q102 -116 107 -330h-727v-21q0 -158 112 -269.5t271 -111.5q96 0 179 31t166 98v-102q-82 -68 -166.5 -99.5t-182.5 -31.5q-211 0 -346 135q-48 48 -79 106 q-27 -59 -68 -107q-113 -134 -292 -134t-292.5 134.5t-113.5 345.5zM185 459q0 -160 89 -272.5t216 -112.5t216 112.5t89 272.5q0 161 -89 274t-216 113t-216 -113t-89 -274zM905 563h609q-16 109 -75 180q-84 103 -230 103q-130 0 -222 -112q-60 -74 -82 -171z" />
<glyph unicode="&#x178;" horiz-adv-x="1194" d="M0 1397h68h69l462 -561l467 561h64h64l-543 -639v-758h-54h-54v751zM326 1612q0 38 26 64t63 26t63 -26t26 -64q0 -37 -26 -63t-63 -26t-63 26t-26 63zM689 1612q0 38 26 64t63 26t63 -26t26 -64q0 -37 -26 -63t-63 -26t-63 26t-26 63z" />
<glyph unicode="&#x2c6;" horiz-adv-x="682" d="M59 1046l218 339h64h64l218 -339h-87l-195 226l-195 -226h-87z" />
<glyph unicode="&#x2dc;" horiz-adv-x="682" d="M6 1045q6 93 47 143t111 50q40 0 82.5 -11t113.5 -41q72 -30 108.5 -41t62.5 -11q27 0 49.5 27.5t31.5 72.5h64q-6 -93 -47 -143t-111 -50q-39 0 -81 11.5t-115 41.5q-70 29 -107 40t-64 11t-49.5 -27.5t-31.5 -72.5h-64z" />
<glyph unicode="&#x2000;" horiz-adv-x="931" />
<glyph unicode="&#x2001;" horiz-adv-x="1862" />
<glyph unicode="&#x2002;" horiz-adv-x="931" />
<glyph unicode="&#x2003;" horiz-adv-x="1862" />
<glyph unicode="&#x2004;" horiz-adv-x="620" />
<glyph unicode="&#x2005;" horiz-adv-x="465" />
<glyph unicode="&#x2006;" horiz-adv-x="310" />
<glyph unicode="&#x2007;" horiz-adv-x="310" />
<glyph unicode="&#x2008;" horiz-adv-x="232" />
<glyph unicode="&#x2009;" horiz-adv-x="372" />
<glyph unicode="&#x200a;" horiz-adv-x="103" />
<glyph unicode="&#x2010;" horiz-adv-x="641" d="M78 411v97h484v-97h-484z" />
<glyph unicode="&#x2011;" horiz-adv-x="641" d="M78 411v97h484v-97h-484z" />
<glyph unicode="&#x2012;" horiz-adv-x="641" d="M78 411v97h484v-97h-484z" />
<glyph unicode="&#x2013;" horiz-adv-x="1024" d="M78 426v67h868v-67h-868z" />
<glyph unicode="&#x2014;" horiz-adv-x="2048" d="M78 426v67h1892v-67h-1892z" />
<glyph unicode="&#x2018;" horiz-adv-x="362" d="M115 965v176q0 73 37 147t95 116v-66q-29 -35 -38 -80q-6 -32 -7 -94h5h40v-100v-99h-61h-71z" />
<glyph unicode="&#x2019;" horiz-adv-x="362" d="M115 963v66q29 35 38 80q6 32 7 94h-5h-40v100v99h61h71v-176q0 -73 -37 -147t-95 -116z" />
<glyph unicode="&#x201a;" horiz-adv-x="362" d="M115 0v100v99h61h71v-176q0 -73 -37 -147t-95 -116v66q29 35 38 80q6 32 7 94h-5h-40z" />
<glyph unicode="&#x201c;" horiz-adv-x="680" d="M115 965v176q0 73 37 147t95 116v-66q-29 -35 -38 -80q-6 -32 -7 -94h5h40v-100v-99h-61h-71zM433 965v176q0 73 37 147t95 116v-66q-29 -35 -38 -80q-6 -32 -7 -94h5h40v-100v-99h-61h-71z" />
<glyph unicode="&#x201d;" horiz-adv-x="680" d="M115 963v66q29 35 38 80q6 32 7 94h-5h-40v100v99h61h71v-176q0 -73 -37 -147t-95 -116zM433 963v66q29 35 38 80q6 32 7 94h-5h-40v100v99h61h71v-176q0 -73 -37 -147t-95 -116z" />
<glyph unicode="&#x201e;" horiz-adv-x="680" d="M119 0v100v99h61h71v-176q0 -73 -37 -147t-95 -116v66q29 35 38 80q6 32 7 94h-5h-40zM429 0v100v99h61h71v-176q0 -73 -37 -147t-95 -116v66q29 35 38 80q6 32 7 94h-5h-40z" />
<glyph unicode="&#x2022;" horiz-adv-x="1024" d="M262 840q0 105 72.5 177.5t177.5 72.5t177.5 -72.5t72.5 -177.5t-72.5 -177.5t-177.5 -72.5t-177.5 72.5t-72.5 177.5z" />
<glyph unicode="&#x2026;" horiz-adv-x="2048" d="M274 0v196h134v-196h-134zM955 0v196h134v-196h-134zM1637 0v196h134v-196h-134z" />
<glyph unicode="&#x202f;" horiz-adv-x="372" />
<glyph unicode="&#x2039;" horiz-adv-x="575" d="M33 473l382 456h128l-382 -456l382 -457h-128z" />
<glyph unicode="&#x203a;" horiz-adv-x="575" d="M33 16l382 456l-382 457h128l382 -457l-382 -456h-128z" />
<glyph unicode="&#x205f;" horiz-adv-x="465" />
<glyph unicode="&#x2074;" horiz-adv-x="641" d="M51 915v14v14l433 454h13h14v-414h115v-68h-115v-237h-79v237h-381zM163 983h269v282z" />
<glyph unicode="&#x2122;" horiz-adv-x="1925" d="M205 1299v89h393v-89h-152v-518h-89v518h-152zM661 781v607h160l112 -486l112 486h160v-607h-89v559l-129 -559h-108l-129 559v-559h-89z" />
<glyph unicode="&#x2215;" horiz-adv-x="1536" d="M256 -56l1084 1467h78l-1084 -1467h-78z" />
<glyph unicode="&#xe000;" horiz-adv-x="920" d="M0 920h920v-920h-920v920z" />
<glyph unicode="&#xfb01;" horiz-adv-x="877" d="M635 0v920h49h49v-920h-49h-49zM635 1229v168h98v-168h-98zM23 839v81h171v141q0 163 85.5 258t232.5 95q100 0 168 -44v-96q-64 41 -159 41q-118 0 -173.5 -61.5t-55.5 -192.5v-141h190v-81h-190v-839h-49h-49v839h-171z" />
<glyph unicode="&#xfb02;" horiz-adv-x="877" d="M635 0v1397h49h49v-1397h-49h-49zM23 839v81h171v141q0 163 85.5 258t232.5 95q100 0 168 -44v-96q-64 41 -159 41q-118 0 -173.5 -61.5t-55.5 -192.5v-141h190v-81h-190v-839h-49h-49v839h-171z" />
<glyph unicode="&#xfb03;" horiz-adv-x="1369" d="M1127 0v920h49h49v-920h-49h-49zM1127 1229v168h98v-168h-98zM515 839v81h171v141q0 163 85.5 258t232.5 95q100 0 168 -44v-96q-64 41 -159 41q-118 0 -173.5 -61.5t-55.5 -192.5v-141h190v-81h-190v-839h-49h-49v839h-171zM23 839v81h171v141q0 163 85.5 258t232.5 95 q100 0 168 -44v-96q-64 41 -159 41q-118 0 -173.5 -61.5t-55.5 -192.5v-141h190v-81h-190v-839h-49h-49v839h-171z" />
<glyph unicode="&#xfb04;" horiz-adv-x="1369" d="M1127 0v1397h49h49v-1397h-49h-49zM515 839v81h171v141q0 163 85.5 258t232.5 95q100 0 168 -44v-96q-64 41 -159 41q-118 0 -173.5 -61.5t-55.5 -192.5v-141h190v-81h-190v-839h-49h-49v839h-171zM23 839v81h171v141q0 163 85.5 258t232.5 95q100 0 168 -44v-96 q-64 41 -159 41q-118 0 -173.5 -61.5t-55.5 -192.5v-141h190v-81h-190v-839h-49h-49v839h-171z" />
<glyph d="M-478 1051q0 201 138.5 339.5t338.5 138.5q201 0 339.5 -138.5t138.5 -339.5q0 -200 -138.5 -338.5t-339.5 -138.5q-200 0 -338.5 138.5t-138.5 338.5zM-413 1051q0 -173 119.5 -292.5t292.5 -119.5t293 119.5t120 292.5t-120 293t-293 120t-292.5 -120t-119.5 -293z" />
<glyph d="M-244 1060q0 116 75.5 195.5t184.5 79.5q58 0 114.5 -22t79.5 -54l-58 -62q-19 26 -58.5 44.5t-77.5 18.5q-78 0 -131.5 -58t-53.5 -142t54.5 -141.5t133.5 -57.5q37 0 77 19.5t61 47.5l58 -62q-24 -34 -81 -57t-115 -23q-110 0 -186.5 79.5t-76.5 194.5z" />
<glyph d="M-478 1046q0 201 138.5 339.5t338.5 138.5q201 0 339.5 -138.5t138.5 -339.5q0 -200 -138.5 -338.5t-339.5 -138.5q-200 0 -338.5 138.5t-138.5 338.5zM-413 1046q0 -173 119.5 -292.5t292.5 -119.5t293 119.5t120 292.5t-120 293t-293 120t-292.5 -120t-119.5 -293z" />
<glyph d="M-160 807v506h187q62 0 104.5 -42.5t42.5 -104.5t-43 -105q-20 -20 -46 -31l89 -223h-91l-84 212h-84v-212h-75zM-85 1094h112q30 0 51 21t21 51t-21 51t-51 21h-112v-72v-72z" />
<glyph d="M-331 330h166l220 -327h-66z" />
<glyph d="M-87 3l222 327h166l-322 -327h-66z" />
<glyph d="M-282 0l218 339h64h64l218 -339h-87l-195 226l-195 -226h-87z" />
<glyph d="M-335 -1q6 93 47 143t111 50q40 0 82.5 -11t113.5 -41q72 -30 108.5 -41t62.5 -11q27 0 49.5 27.5t31.5 72.5h64q-6 -93 -47 -143t-111 -50q-39 0 -81 11.5t-115 41.5q-70 29 -107 40t-64 11t-49.5 -27.5t-31.5 -72.5h-64z" />
<glyph d="M-271 89q0 38 26 64t63 26t63 -26t26 -64q0 -37 -26 -63t-63 -26t-63 26t-26 63zM92 89q0 38 26 64t63 26t63 -26t26 -64q0 -37 -26 -63t-63 -26t-63 26t-26 63z" />
<glyph d="M-177 135q0 74 51.5 125.5t125.5 51.5t125.5 -51.5t51.5 -125.5t-51.5 -125.5t-125.5 -51.5t-125.5 51.5t-51.5 125.5zM-123 135q0 -52 35.5 -87.5t87.5 -35.5t87.5 35.5t35.5 87.5t-35.5 87.5t-87.5 35.5t-87.5 -35.5t-35.5 -87.5z" />
<glyph d="M-153 -345l10 67q9 -5 32 -8.5t47 -3.5q61 0 94 23t33 66q0 29 -29.5 48.5t-74.5 19.5l-31 -1l41 137h63l-24 -81q53 -6 87 -33q43 -33 43 -87q0 -72 -56 -116.5t-148 -44.5q-27 0 -52.5 4t-34.5 10z" />
<glyph d="M-328 330h161l221 -327h-64z" />
<glyph d="M-60 3l222 327h166l-322 -327h-66z" />
<glyph d="M-282 0l218 339h64h64l218 -339h-87l-195 226l-195 -226h-87z" />
<glyph d="M-335 -1q6 93 47 143t111 50q40 0 82.5 -11t113.5 -41q72 -30 108.5 -41t62.5 -11q27 0 49.5 27.5t31.5 72.5h64q-6 -93 -47 -143t-111 -50q-39 0 -81 11.5t-115 41.5q-70 29 -107 40t-64 11t-49.5 -27.5t-31.5 -72.5h-64z" />
<glyph d="M-271 89q0 38 26 64t63 26t63 -26t26 -64q0 -37 -26 -63t-63 -26t-63 26t-26 63zM92 89q0 38 26 64t63 26t63 -26t26 -64q0 -37 -26 -63t-63 -26t-63 26t-26 63z" />
<glyph d="M-177 135q0 74 51.5 125.5t125.5 51.5t125.5 -51.5t51.5 -125.5t-51.5 -125.5t-125.5 -51.5t-125.5 51.5t-51.5 125.5zM-123 135q0 -52 35.5 -87.5t87.5 -35.5t87.5 35.5t35.5 87.5t-35.5 87.5t-87.5 35.5t-87.5 -35.5t-35.5 -87.5z" />
<glyph d="M-153 -345l10 67q9 -5 32 -8.5t47 -3.5q61 0 94 23t33 66q0 29 -29.5 48.5t-74.5 19.5l-31 -1l41 137h63l-24 -81q53 -6 87 -33q43 -33 43 -87q0 -72 -56 -116.5t-148 -44.5q-27 0 -52.5 4t-34.5 10z" />
<glyph d="M0 1299v89h393v-89h-152v-518h-89v518h-152z" />
<glyph d="M0 781v607h160l112 -486l112 486h160v-607h-89v559l-129 -559h-108l-129 559v-559h-89z" />
</font>
</defs>
</svg>
